<?xml version="1.0" encoding="UTF-8" standalone="no"?>
<svg width="130px" height="34px" viewBox="0 0 130 34" version="1.1" xmlns="http://www.w3.org/2000/svg" xmlns:xlink="http://www.w3.org/1999/xlink">
    <!-- Generator: Sketch 3.6.1 (26313) - http://www.bohemiancoding.com/sketch -->
    <title>Group</title>
    <desc>Created with Sketch.</desc>
    <defs></defs>
    <g id="Construir" stroke="none" stroke-width="1" fill="none" fill-rule="evenodd">
        <g id="Home" transform="translate(-124.000000, -19.000000)">
            <g id="Group" transform="translate(124.000000, 19.000000)">
                <g id="ico_imagotipo" transform="translate(44.107143, 7.727273)" fill-opacity="0.94" fill="#140F38">
                    <path d="M85.8926879,0.719649894 C85.8926879,0.444055814 85.6489722,0.195632981 85.3786001,0.195632981 L83.6556656,0.195632981 C83.3577908,0.195632981 83.1415778,0.444055814 83.1415778,0.719649894 L83.1415778,18.0216964 C83.1415778,18.2968592 83.3852935,18.545282 83.6556656,18.545282 L85.3786001,18.545282 C85.6764748,18.545282 85.8926879,18.2968592 85.8926879,18.0216964 L85.8926879,0.719649894 Z" id="Fill-1"></path>
                    <path d="M75.9516686,0.714991966 C75.9516686,0.445004651 75.7126072,0.201326004 75.4477357,0.201326004 L73.7590736,0.201326004 C73.4671225,0.201326004 73.2551407,0.445004651 73.2551407,0.714991966 L73.2640261,11.0241082 C73.2640261,12.6198799 73.1311672,13.3759307 72.7072035,14.132844 C72.0704116,15.2416896 70.7968279,15.9710004 69.4187341,15.9710004 C68.0131377,15.9710004 66.7395539,15.2416896 66.1027621,14.132844 C65.6792214,13.3759307 65.5459394,12.6198799 65.5459394,11.0241082 L65.5556711,0.714991966 C65.5556711,0.445004651 65.3170328,0.201326004 65.0521612,0.201326004 L63.3630761,0.201326004 C63.071125,0.201326004 62.8591431,0.445004651 62.8591431,0.714991966 L62.8684517,11.7547129 C62.8684517,13.5113556 63.2919923,14.8095374 64.2207353,15.998603 C65.4672395,17.5930808 67.402156,18.5397615 69.4187341,18.5397615 C71.4078096,18.5397615 73.3431491,17.5930808 74.5896533,15.998603 C75.5183963,14.8095374 75.9419369,13.4850469 75.9419369,11.7547129 L75.9516686,0.714991966 Z" id="Fill-8"></path>
                    <path d="M56.4731996,17.7778452 C56.888701,18.1961962 56.7507647,18.5382089 56.1668625,18.5377776 L54.3715749,18.5360524 C54.1320903,18.5356211 53.7969813,18.3950207 53.6264649,18.2233674 L47.7578249,12.3129742 C47.36221,11.9148939 47.639352,11.2282808 48.1953284,11.2287121 L49.537034,11.2300059 C49.7765186,11.2304372 50.1116276,11.3710376 50.282144,11.5426909 L56.4731996,17.7778452 Z" id="Fill-12"></path>
                    <path d="M52.556443,13.7760812 C53.7246705,12.5063645 54.2180255,11.2357852 54.2180255,9.41056744 C54.2180255,5.62643214 51.4136026,2.71479577 47.7527898,2.71479577 C44.067013,2.71479577 41.3671001,5.57338351 41.3671001,9.46361607 C41.3671001,11.3940685 41.989506,12.9294596 43.2360102,14.1474216 C44.4562811,15.3382123 46.0658202,16.0252567 47.649126,16.0252567 C48.7136897,16.0252567 49.8823403,15.7349987 50.738307,15.2325463 M52.58183,17.1103814 C51.1542315,18.0372228 49.4410287,18.5396753 47.7527898,18.5396753 C45.2085841,18.5396753 42.6394145,17.3760558 40.8995552,15.3908296 C39.4719567,13.8032524 38.7446177,11.7123603 38.7446177,9.43644482 C38.7446177,4.32954419 42.7684653,0.201671036 47.7794462,0.201671036 C52.815814,0.201671036 56.8392386,4.38259281 56.8392386,9.59472812 C56.8392386,12.0039121 56.0869356,13.8291298 54.3733096,15.6552101" id="Fill-10"></path>
                    <path d="M31.5123545,18.5385108 L32.2248844,18.5385108 C32.522336,18.5385108 32.738126,18.2909505 32.738126,18.0166503 L32.738126,16.4489125 C32.738126,16.1746123 32.522336,15.927052 32.2248844,15.927052 L27.5562057,15.927052 L27.5545132,15.930071 L25.5235491,15.930071 L25.5235491,10.2335975 L25.9077398,10.2335975 L25.9068936,10.2348913 L32.2346161,10.2348913 C32.5320677,10.2348913 32.7478577,9.98733108 32.7478577,9.71303087 L32.7478577,8.14529302 C32.7478577,7.87056152 32.5320677,7.62343256 32.2346161,7.62343256 L31.974822,7.62343256 L31.974822,7.62300127 L25.5235491,7.62300127 L25.5235491,2.81282791 L32.2248844,2.81282791 C32.522336,2.81282791 32.738126,2.56526765 32.738126,2.29096744 L32.738126,0.723229598 C32.738126,0.448929387 32.522336,0.201369133 32.2248844,0.201369133 L27.5490127,0.201369133 L23.3064133,0.201369133 C23.0089616,0.201369133 22.7931717,0.448929387 22.7931717,0.723229598 L22.7931717,18.0188068 C22.7931717,18.2900879 23.0047305,18.5346292 23.2975278,18.5398047 L31.5123545,18.5398047 L31.5123545,18.5385108 Z" id="Fill-6"></path>
                    <path d="M15.0871438,0.201455391 L13.4213301,0.201455391 C13.1289559,0.201455391 12.9165509,0.451603383 12.9165509,0.729353911 L12.9080886,12.8723137 L1.58673302,0.452897252 C1.58673302,0.452897252 1.40563872,0.204905708 1.08449252,0.204905708 C0.782809729,0.204905708 0.504821517,0.201455391 0.504821517,0.201455391 C0.238257477,0.201455391 4.23117525e-05,0.423569556 4.23117525e-05,0.700888795 L4.23117525e-05,17.2770748 L4.23117525e-05,18.0119924 C4.23117525e-05,18.2893116 0.228948892,18.5398909 0.494243578,18.5398909 L2.18713679,18.5398909 C2.479511,18.5398909 2.69191599,18.2893116 2.69191599,18.0119924 L2.67456817,5.56454207 L14.3538812,18.3199332 C14.3538812,18.3199332 14.5806721,18.5398909 14.7122617,18.5398909 L15.0748734,18.5398909 C15.3401681,18.5398909 15.5796526,18.3177767 15.5796526,18.0404575 L15.591923,17.7290664 L15.591923,0.729353911 C15.591923,0.451603383 15.3524385,0.201455391 15.0871438,0.201455391" id="Fill-4"></path>
                </g>
                <g id="Logo">
                    <path d="M3.77581225,7.98006922 L18.9695128,0.34813286 C19.8863398,-0.11230103 21.0234434,0.0884280466 21.6967471,0.829195035 L34.755437,15.2020845 C35.5461082,16.0724395 35.5305159,17.352451 34.718866,18.2058801 L20.6038689,33.0436994 C19.2357158,34.3483062 16.9447822,34.2144868 15.7614687,32.7609862 L2.08107139,14.7099148 C0.366202291,12.4468862 1.15999192,9.29393227 3.77581225,7.98006922" id="Guayaba" fill="#FF2F73"></path>
                    <path d="M0.963472288,15.0187044 L10.8509726,1.82532961 C11.4474488,1.0292894 12.5596048,0.730972665 13.5181058,1.11021574 L32.1129113,8.46393473 C33.2389586,8.9092941 33.8425222,10.0591887 33.5292588,11.1617441 L28.0813105,30.3375859 C27.4888033,32.0769734 25.3781733,32.9190306 23.6204963,32.117701 L2.69620165,21.7400871 C0.0730104212,20.4389184 -0.738639475,17.2901959 0.963472288,15.0187044" id="Quirúrgico" fill="#2FCAD7" style="mix-blend-mode: multiply;"></path>
                    <path d="M7.72513452,5.9962881 L15.7193213,1.98073413 L26.6820136,6.31616849 L32.9469015,13.2115418 L30.1692168,22.9885147 L22.169389,31.3980098 L10.2473045,25.4851323 L2.08107139,14.7099148 C1.92468265,14.5035363 1.78915757,14.2897565 1.67397539,14.0706454 L7.72513452,5.9962881 Z" id="Medianoche" fill="#1A1446"></path>
                </g>
            </g>
        </g>
    </g>
</svg>