<?xml version="1.0" encoding="UTF-8" standalone="no"?>
<svg
   xmlns:dc="http://purl.org/dc/elements/1.1/"
   xmlns:cc="http://creativecommons.org/ns#"
   xmlns:rdf="http://www.w3.org/1999/02/22-rdf-syntax-ns#"
   xmlns:svg="http://www.w3.org/2000/svg"
   xmlns="http://www.w3.org/2000/svg"
   version="1.1"
   viewBox="0 0 80 69.014725"
   data-name="Layer 1"
   id="e7611fa2-5f10-4219-a8a3-b243e9362271"
   width="80"
   height="69.014725">
  <metadata
     id="metadata33">
    <rdf:RDF>
      <cc:Work
         rdf:about="">
        <dc:format>image/svg+xml</dc:format>
        <dc:type
           rdf:resource="http://purl.org/dc/dcmitype/StillImage" />
        <dc:title>yappy-image-trace</dc:title>
      </cc:Work>
    </rdf:RDF>
  </metadata>
  <defs
     id="defs4">
    <style
       id="style2">.a17c5ea4-2d8f-475c-9b9d-94e75c8cda6e{fill:#fefefe;}.abfacd92-94fa-4aa0-b8d4-cfe194242e21{fill:#fe9631;}.b89f2136-a186-444e-8cce-77f19f193bec{fill:#013685;}</style>
  </defs>
  <title
     id="title6">yappy-image-trace</title>
  <path
     id="path10"
     d="m 43.21832,17.54762 c 0.024,-1.1025 -0.10199,-2.14648 -0.0315,-3.20097 A 14.95262,14.95262 0 0 1 46.02678,6.448174 C 48.6536,2.8119 52.21334,0.7081913 56.65942,0.1317914 c 3.3158,-0.4307989 6.44547,0.198888 9.3575,1.8252656 a 15.82924,15.82924 0 0 1 2.85197,2.082695 15.50576,15.50576 0 0 1 3.48692,4.605196 14.29367,14.29367 0 0 1 1.33367,4.147382 c 0.76328,4.69526 -0.37525,8.90568 -3.42913,12.5412 -2.50298,2.97731 -5.73022,4.72829 -9.59315,5.28441 -1.74647,0.25143 -3.48693,0.15536 -5.22513,-0.075 -4.26222,-0.57492 -8.30302,-1.89284 -12.20198,-3.67232 -1.77572,-0.81057 -3.50343,-1.71268 -5.02849,-2.94354 -0.52537,-0.4218 -1.04473,-0.8616 -1.29239,-1.52056 -0.17337,-0.46082 -0.039,-0.74377 0.43079,-0.89462 0.37527,-0.11928 0.75953,-0.1118 1.14981,-0.093 0.90887,0.0443 1.814,0.19513 2.72888,0.0488 1.26913,-0.20339 1.65116,-0.89162 1.84179,-1.81027 0.033,-0.15835 0.0555,-0.31897 0.075,-0.47957 a 10.5981,10.5981 0 0 0 0.0728,-1.63013 z"
     class="abfacd92-94fa-4aa0-b8d4-cfe194242e21"
     style="fill:#fe9631;stroke-width:0.075052" />
  <path
     style="fill:#1badf3;fill-opacity:1;stroke-width:0.075052"
     id="path12"
     d="m 21.49825,11.85568 c 1.01847,0 2.02641,0.12908 3.03962,0.21089 a 32.00296,32.00296 0 0 1 3.82765,0.55013 c 2.82422,0.57565 5.59137,1.33893 8.18443,2.63509 0.5929,0.2957 1.16631,0.62818 1.64289,1.0995 a 2.159248,2.159248 0 0 1 0.33248,0.40304 c 0.26493,0.44131 0.14478,0.76703 -0.34375,0.93139 -0.46156,0.15461 -0.94714,0.19739 -1.42598,0.21164 a 8.449362,8.449362 0 0 0 -1.48828,0.15012 c -1.32242,0.27619 -1.80126,0.84133 -1.80651,2.20427 -0.006,1.04098 0.2124,2.05793 0.36551,3.08314 0.18237,1.22711 0.25517,2.4497 0.10053,3.70532 -0.15011,1.20083 -0.37527,2.3649 -0.83159,3.47341 -1.96035,4.73804 -5.46679,7.65832 -10.5163,8.52367 C 18.21618,39.78781 14.3465,38.5502 11.05997,35.57063 A 13.01628,13.01628 0 0 1 7.418484,29.96649 C 6.767782,28.01964 6.517859,26.01349 6.775288,23.98484 7.554329,17.91463 11.93812,13.41976 17.47546,12.21893 c 1.32917,-0.2867 2.67261,-0.352 4.02279,-0.36325 z"
     class="b89f2136-a186-444e-8cce-77f19f193bec" />
  <path
     id="path14"
     d="m 54.17593,61.05456 v 0.73776 q 0,2.51425 0,5.0285 c 0,0.45631 -0.0526,0.90062 -0.29345,1.29839 -0.43831,0.72501 -1.35095,1.04098 -2.38517,0.83234 -0.82556,-0.16662 -1.33066,-0.7085 -1.4665,-1.58435 a 3.969504,3.969504 0 0 1 -0.0443,-0.59668 q 0,-8.98523 0,-17.96971 v -0.075 c 0.007,-1.6594 1.24811,-2.49698 2.80469,-1.88831 0.56215,0.21991 0.84584,0.67097 0.99219,1.23235 0.024,0.0909 -0.0117,0.19964 0.0991,0.30021 a 5.142569,5.142569 0 0 1 2.53226,-1.42598 c 2.28458,-0.56064 4.39655,-0.26343 6.1993,1.35093 1.08675,0.97569 1.70218,2.23881 2.0054,3.64828 0.49984,2.32663 0.43605,4.62022 -0.50436,6.83724 -1.12127,2.64259 -3.48542,4.03405 -6.35466,3.76612 A 11.44019,11.44019 0 0 1 56.5731,62.39123 c -0.91115,-0.18161 -1.7217,-0.56888 -2.39717,-1.33667 z m -0.16437,-6.66237 c -0.006,1.23011 0.15386,2.2951 0.69198,3.27227 0.59066,1.07175 1.50104,1.58735 2.72964,1.56259 1.2286,-0.0248 2.16076,-0.55314 2.6636,-1.66616 0.8586,-1.90107 0.90064,-3.85693 0.0585,-5.76775 -0.54037,-1.22636 -1.55507,-1.86204 -2.92703,-1.82002 -1.37196,0.0421 -2.25156,0.76029 -2.77017,1.98814 a 6.115993,6.115993 0 0 0 -0.44656,2.43093 z"
     class="b89f2136-a186-444e-8cce-77f19f193bec"
     style="fill:#013685;stroke-width:0.075052" />
  <path
     id="path16"
     d="m 36.83365,61.06132 c 0,1.32241 0,2.55702 0,3.79238 0,0.72501 0.0166,1.45151 -0.009,2.1765 -0.0457,1.2939 -0.88111,2.04293 -2.1765,1.98064 -1.29541,-0.0623 -2.00314,-0.78505 -2.00389,-2.07895 q -0.0103,-9.15636 0,-18.3127 c 0,-1.58435 1.41022,-2.43394 2.85197,-1.74947 0.50285,0.23792 0.77604,0.64845 0.88562,1.18132 0.0173,0.0841 0.0308,0.16961 0.0488,0.25368 0,0.009 0.0195,0.0146 0.0608,0.0406 a 5.209365,5.209365 0 0 1 2.24105,-1.32917 c 2.9443,-0.90063 6.22932,-0.0495 7.83544,3.06588 0.87211,1.69016 1.07849,3.51993 0.96517,5.39324 -0.0878,1.43799 -0.41729,2.81745 -1.15281,4.06932 -1.33967,2.28158 -3.39684,3.16194 -5.96963,2.99683 a 8.04258,8.04258 0 0 1 -1.26113,-0.17043 c -0.8706,-0.19288 -1.64288,-0.5659 -2.3161,-1.30966 z m 6.48975,-6.40645 c 0.007,-1.05072 -0.1291,-2.07144 -0.63795,-3.00808 -0.60041,-1.10478 -1.52581,-1.69393 -2.79569,-1.67667 -1.25487,0.018 -2.15549,0.61692 -2.71613,1.73295 a 5.312936,5.312936 0 0 0 -0.52537,1.93859 c -0.12089,1.35095 -0.0361,2.67711 0.58841,3.91023 0.53287,1.05072 1.38097,1.64213 2.59231,1.6744 1.24586,0.033 2.20877,-0.43755 2.82945,-1.53707 0.53212,-0.94115 0.66346,-1.97537 0.66497,-3.03435 z"
     class="b89f2136-a186-444e-8cce-77f19f193bec"
     style="fill:#013685;stroke-width:0.075052" />
  <path
     id="path18"
     d="m 29.32468,54.79972 q 0,1.81927 0,3.63853 a 5.075772,5.075772 0 0 0 0.34975,1.83052 c 0.53287,1.37495 -0.52536,2.36038 -1.70219,2.35139 -1.08825,-0.007 -1.76448,-0.42406 -2.14723,-1.41024 -0.12602,-0.32348 -0.23342,-0.0976 -0.33699,-0.03 -2.5923,1.67667 -5.35497,1.94385 -8.18518,0.79029 -3.44264,-1.40271 -3.02835,-5.54259 -0.82557,-7.07215 1.19557,-0.83082 2.53226,-1.21584 3.94548,-1.39897 1.07776,-0.13877 2.16076,-0.23416 3.23775,-0.37526 0.85936,-0.11562 1.31342,-0.53887 1.39447,-1.22635 0.0976,-0.83383 -0.22966,-1.43425 -1.02746,-1.75322 -1.22185,-0.48709 -3.27228,-0.54487 -4.72827,1.0147 a 5.511074,5.511074 0 0 1 -0.71901,0.65596 1.789992,1.789992 0 0 1 -2.19002,-0.033 c -0.6342,-0.49308 -0.82031,-1.25187 -0.46833,-2.05492 0.48483,-1.10777 1.40198,-1.76297 2.46171,-2.2403 1.57609,-0.70926 3.24375,-0.87136 4.94744,-0.77605 1.23985,0.069 2.45645,0.24917 3.60249,0.77228 1.56409,0.71525 2.38817,1.90933 2.38892,3.64529 q 0,1.83727 0,3.67755 z m -4.2577,0.29646 c -0.7873,0.51636 -1.62488,0.59591 -2.4467,0.72651 -0.88711,0.14111 -1.78848,0.21539 -2.60956,0.62668 -0.70323,0.35274 -1.02595,0.92538 -0.96741,1.70668 0.0533,0.716 0.46457,1.17982 1.11077,1.41398 1.2286,0.44431 2.41142,0.29346 3.43888,-0.5051 1.26688,-0.98543 1.49804,-2.40392 1.47402,-3.96875 z"
     class="b89f2136-a186-444e-8cce-77f19f193bec"
     style="fill:#013685;stroke-width:0.075052" />
  <path
     id="path20"
     d="m 6.920139,58.2161 c 0.655955,-2.38741 1.287142,-4.684 1.917581,-6.97985 0.27469,-0.99819 0.538122,-1.99939 0.825572,-2.99382 0.225156,-0.77904 0.727258,-1.30666 1.530308,-1.48904 0.80306,-0.18237 1.54458,-0.0375 2.12548,0.60042 0.51786,0.56739 0.61692,1.24961 0.42855,1.96186 -0.37526,1.41248 -0.90888,2.77167 -1.38472,4.15038 Q 10.38679,59.19402 8.385154,64.91224 C 8.070686,65.81286 7.639888,66.6587 7.004197,67.38145 6.297956,68.18451 5.382322,68.57553 4.332343,68.64833 3.656874,68.69487 2.981406,68.70538 2.323199,68.50723 1.247703,68.18225 0.6983223,67.29065 0.9482451,66.27444 1.123116,65.56594 1.686758,65.12689 2.518334,65.06385 c 0.211647,-0.0166 0.425545,-0.0149 0.637943,-0.0103 0.613926,0.0149 1.057484,-0.25893 1.329172,-0.80082 0.139592,-0.27768 0.243169,-0.57264 0.365504,-0.85934 0.0653,-0.15461 0,-0.28744 -0.05029,-0.43004 Q 2.595638,56.65876 0.3966122,50.35439 A 10.10126,10.10126 0 0 1 0.0543746,49.2076 c -0.2514243,-1.1408 0.3917726,-2.20879 1.4605134,-2.46022 1.21134,-0.28594 2.326614,0.3355 2.645586,1.48303 0.514857,1.86355 1.020707,3.73009 1.531061,5.59438 q 0.559139,2.03918 1.12128,4.07684 c 0.02101,0.0705 0.04804,0.13804 0.107324,0.31447 z"
     class="b89f2136-a186-444e-8cce-77f19f193bec"
     style="fill:#013685;stroke-width:0.075052" />
  <path
     id="path22"
     d="m 73.10856,58.06149 q 0.33024,-1.20083 0.66046,-2.40167 c 0.67546,-2.46471 1.34343,-4.93242 2.03091,-7.39414 0.4368,-1.56557 2.28383,-2.1765 3.48918,-1.15654 0.60716,0.5126 0.81656,1.19258 0.66195,1.95736 -0.21614,1.06648 -0.6432,2.07068 -0.99895,3.09439 q -2.17275,6.25034 -4.36277,12.49617 c -0.33998,0.96742 -0.76702,1.89581 -1.45001,2.68386 a 3.51619,3.51619 0 0 1 -1.91382,1.17232 c -0.98994,0.22515 -1.98588,0.26643 -2.95331,-0.093 -0.64769,-0.24016 -1.09951,-0.68748 -1.19107,-1.41024 -0.14038,-1.10326 0.4976,-1.87254 1.60912,-1.95135 a 4.684,4.684 0 0 1 0.56214,-0.009 c 0.67547,0.0361 1.14004,-0.27469 1.44025,-0.86985 0.27018,-0.53587 0.3685,-1.02972 0.14478,-1.65566 -1.51906,-4.24869 -2.98858,-8.51465 -4.47236,-12.77535 -0.18313,-0.52536 -0.28819,-1.06499 -0.14566,-1.61813 0.22516,-0.88111 1.02747,-1.48904 1.96261,-1.50104 1.03873,-0.0158 1.87631,0.56589 2.12773,1.49578 q 1.31416,4.77933 2.62157,9.56015 c 0.033,0.12001 0.0683,0.23941 0.10213,0.35874 z"
     class="b89f2136-a186-444e-8cce-77f19f193bec"
     style="fill:#013685;stroke-width:0.075052" />
</svg>
