<?xml version="1.0" encoding="UTF-8" standalone="no"?>
<svg
   xmlns:dc="http://purl.org/dc/elements/1.1/"
   xmlns:cc="http://creativecommons.org/ns#"
   xmlns:rdf="http://www.w3.org/1999/02/22-rdf-syntax-ns#"
   xmlns:svg="http://www.w3.org/2000/svg"
   xmlns="http://www.w3.org/2000/svg"
   height="16"
   width="16"
   xml:space="preserve"
   viewBox="0 0 16 16"
   y="0px"
   x="0px"
   id="Layer_1"
   version="1.1"><metadata
   id="metadata61"><rdf:RDF><cc:Work
       rdf:about=""><dc:format>image/svg+xml</dc:format><dc:type
         rdf:resource="http://purl.org/dc/dcmitype/StillImage" /><dc:title></dc:title></cc:Work></rdf:RDF></metadata><defs
   id="defs59">
	
	
	
	
	
	

		
		
		
		
		
	</defs>

<g
   transform="translate(0,-267.154)"
   id="g26">
</g>
<g
   transform="translate(0,-267.154)"
   id="g28">
</g>
<g
   transform="translate(0,-267.154)"
   id="g30">
</g>
<g
   transform="translate(0,-267.154)"
   id="g32">
</g>
<g
   transform="translate(0,-267.154)"
   id="g34">
</g>
<g
   transform="translate(0,-267.154)"
   id="g36">
</g>
<g
   transform="translate(0,-267.154)"
   id="g38">
</g>
<g
   transform="translate(0,-267.154)"
   id="g40">
</g>
<g
   transform="translate(0,-267.154)"
   id="g42">
</g>
<g
   transform="translate(0,-267.154)"
   id="g44">
</g>
<g
   transform="translate(0,-267.154)"
   id="g46">
</g>
<g
   transform="translate(0,-267.154)"
   id="g48">
</g>
<g
   transform="translate(0,-267.154)"
   id="g50">
</g>
<g
   transform="translate(0,-267.154)"
   id="g52">
</g>
<g
   transform="translate(0,-267.154)"
   id="g54">
</g>
<path
   style="fill:#80ffe6;stroke-width:0.0692204;fill-opacity:1"
   d="M 15.96391,2.145397 C 16.21593,0.8907603 15.10926,-0.2159137 13.85457,0.036061 l -2.08848,0.4195183 3.7783,3.7783067 z"
   id="path2" /><path
   style="fill:#00d4aa;stroke-width:0.0742281"
   d="M 15.54439,4.233886 11.76609,0.4555793 C 9.224013,1.133977 8.902474,1.132472 8.342895,1.692051 L 2.342668,7.692279 8.307739,13.65735 14.30797,7.657123 c 0.5593,-0.559299 0.55577,-0.872839 1.23642,-3.423237 z"
   id="path4" /><circle
   transform="rotate(45)"
   style="fill:#80ffe6;fill-opacity:1;stroke-width:0.0692204"
   cx="11.31372"
   cy="-2.217836"
   r="1.846869"
   id="circle6" /><polygon
   transform="matrix(0.0489462,0.0489462,-0.0489462,0.0489462,8.911206,-6.770499)"
   style="fill:#80ffe6;fill-opacity:1"
   points="80.642,120.653 80.642,192.653 23.282,192.653 23.282,160.653 "
   id="polygon8" /><polygon
   transform="matrix(0.0489462,0.0489462,-0.0489462,0.0489462,8.911206,-6.770499)"
   style="fill:#80ffe6"
   points="202.512,120.653 202.512,192.653 259.872,192.653 259.872,160.653 "
   id="polygon10" /><g
   style="fill:#ffcc00"
   transform="matrix(0.8662078,0.8662078,-0.6249782,0.6249782,4.822365,-3.140011)"
   id="g935"><path
     style="fill:#ffcc00;stroke-width:0.0760584"
     d="m 10.26025,11.66468 c -0.315103,0 -0.570436,0.25532 -0.570436,0.57042 v 3.19446 c 0,0.3151 0.255333,0.57044 0.570436,0.57044 0.31511,0 0.57044,-0.25534 0.57044,-0.57044 V 12.2351 c 0,-0.3151 -0.25541,-0.57042 -0.57044,-0.57042 z"
     id="path20" /><path
     style="fill:#ffcc00;stroke-width:0.0760584"
     d="m 6.26888,11.66468 c -0.315103,0 -0.570436,0.25532 -0.570436,0.57042 v 3.19446 C 5.698444,15.74466 5.953777,16 6.26888,16 6.58399,16 6.83932,15.74466 6.83932,15.42956 V 12.2351 c 0,-0.3151 -0.25541,-0.57042 -0.57044,-0.57042 z"
     id="path20-9" /><path
     style="fill:#ffcc00;stroke-width:0.0760584"
     d="m 8.264564,11.66468 c -0.315103,0 -0.570436,0.25532 -0.570436,0.57042 v 3.19446 c 0,0.3151 0.255333,0.57044 0.570436,0.57044 0.31511,0 0.57044,-0.25534 0.57044,-0.57044 V 12.2351 c 0,-0.3151 -0.25541,-0.57042 -0.57044,-0.57042 z"
     id="path20-96" /></g></svg>