<?xml version="1.0" encoding="UTF-8" standalone="no"?>
<svg
   xmlns:dc="http://purl.org/dc/elements/1.1/"
   xmlns:cc="http://creativecommons.org/ns#"
   xmlns:rdf="http://www.w3.org/1999/02/22-rdf-syntax-ns#"
   xmlns:svg="http://www.w3.org/2000/svg"
   xmlns="http://www.w3.org/2000/svg"
   id="Layer_1"
   data-name="Layer 1"
   viewBox="0 0 12 12"
   version="1.1"
   width="12"
   height="12">
  <metadata
     id="metadata13">
    <rdf:RDF>
      <cc:Work
         rdf:about="">
        <dc:format>image/svg+xml</dc:format>
        <dc:type
           rdf:resource="http://purl.org/dc/dcmitype/StillImage" />
        <dc:title>tether-usdt-logo</dc:title>
      </cc:Work>
    </rdf:RDF>
  </metadata>
  <defs
     id="defs11" />
  <title
     id="title2">tether-usdt-logo</title>
  <path
     d="m 7.220796,6.450627 v 0 c -0.0682,0.005 -0.42048,0.0284 -1.206312,0.0284 -0.625027,0 -1.068797,-0.0203 -1.224484,-0.0284 v 0 C 2.374543,6.335267 0.5716188,5.878787 0.5716188,5.332237 c 0,-0.54655 1.8029242,-1.00242 4.2183812,-1.11962 v 1.78337 c 0.157958,0.0123 0.610256,0.0413 1.235284,0.0413 0.750036,0 1.125624,-0.0339 1.193238,-0.0407 v -1.78275 c 2.410344,0.11659 4.209288,0.57308 4.209288,1.11839 0,0.54531 -1.798386,1.0018 -4.209288,1.11777 v 0 z m 0,-2.42122 V 2.433557 H 10.58459 V 0 H 1.426204 v 2.433557 h 3.363227 v 1.59523 C 2.055781,4.165117 0,4.752997 0,5.457457 c 0,0.70447 2.055781,1.29173 4.789431,1.42867 V 12 H 7.220226 V 6.884287 C 9.94763,6.747957 12,6.160697 12,5.456847 12,4.752997 9.94933,4.165737 7.220226,4.028787 v 0 z m 0,0 z"
     style="fill:#ffffff;fill-rule:evenodd;stroke-width:0.059204"
     id="path6" />
</svg>
