<?xml version="1.0" encoding="UTF-8" standalone="no"?>
<!-- Created with Inkscape (http://www.inkscape.org/) -->

<svg
   version="1.1"
   id="svg2"
   width="469.23999"
   height="72.58667"
   viewBox="0 0 469.23999 72.58667"
   sodipodi:docname="logos tarjetas all.eps"
   xmlns:inkscape="http://www.inkscape.org/namespaces/inkscape"
   xmlns:sodipodi="http://sodipodi.sourceforge.net/DTD/sodipodi-0.dtd"
   xmlns="http://www.w3.org/2000/svg"
   xmlns:svg="http://www.w3.org/2000/svg">
  <defs
     id="defs6" />
  <sodipodi:namedview
     id="namedview4"
     pagecolor="#ffffff"
     bordercolor="#000000"
     borderopacity="0.25"
     inkscape:showpageshadow="2"
     inkscape:pageopacity="0.0"
     inkscape:pagecheckerboard="0"
     inkscape:deskcolor="#d1d1d1" />
  <g
     id="g8"
     inkscape:groupmode="layer"
     inkscape:label="ink_ext_XXXXXX"
     transform="matrix(1.3333333,0,0,-1.3333333,0,72.586667)">
    <g
       id="g10"
       transform="scale(0.1)">
      <path
         d="M 544.32,7.21484 622.598,491.227 H 747.742 L 669.473,7.21484 H 544.32"
         style="fill:#2753a5;fill-opacity:1;fill-rule:nonzero;stroke:none"
         id="path12" />
      <path
         d="M 1123.15,479.395 C 1098.47,489.188 1059.32,500 1010.9,500 887.313,500 800.281,434.094 799.746,339.871 c -1.027,-69.519 62.313,-108.133 109.688,-131.308 48.418,-23.688 64.879,-39.149 64.879,-60.262 -0.497,-32.426 -39.129,-47.371 -75.165,-47.371 -49.964,0 -76.738,7.711 -117.421,25.746 L 765.25,134.41 747.734,25.7578 C 777.09,12.3906 831.168,0.519531 887.313,0 c 131.317,0 216.807,64.8828 217.817,165.293 0.5,55.098 -32.94,97.32 -105.05,131.816 -43.771,22.149 -70.58,37.082 -70.58,59.743 0.516,20.597 22.676,41.699 72.09,41.699 40.68,1.031 70.58,-8.75 93.22,-18.535 l 11.32,-5.141 17.02,104.52"
         style="fill:#2753a5;fill-opacity:1;fill-rule:nonzero;stroke:none"
         id="path14" />
      <path
         d="m 1443.97,491.227 h -96.8 c -29.86,0 -52.54,-8.747 -65.42,-40.161 L 1095.86,7.21875 h 131.32 c 0,0 21.61,59.74215 26.26,72.60545 14.41,0 142.16,0 160.69,0 3.59,-16.9922 14.93,-72.60545 14.93,-72.60545 h 115.88 z M 1289.49,178.684 c 10.3,27.8 49.96,135.418 49.96,135.418 -0.52,-1.028 10.29,28.32 16.47,46.343 l 8.75,-41.707 c 0,0 23.69,-115.855 28.84,-140.054 -19.56,0 -79.3,0 -104.02,0"
         style="fill:#2753a5;fill-opacity:1;fill-rule:nonzero;stroke:none"
         id="path16" />
      <path
         d="M 439.789,491.227 317.227,161.18 303.832,228.113 C 281.172,305.352 210.105,389.27 130.805,430.996 L 243.066,7.72656 H 375.41 L 572.121,491.227 H 439.789"
         style="fill:#2753a5;fill-opacity:1;fill-rule:nonzero;stroke:none"
         id="path18" />
      <path
         d="M 203.418,491.227 H 2.05859 L 0,481.445 C 157.07,441.281 261.094,344.465 303.832,228.094 l -43.773,222.445 c -7.204,30.914 -29.352,39.668 -56.641,40.688"
         style="fill:#f89d0f;fill-opacity:1;fill-rule:nonzero;stroke:none"
         id="path20" />
      <path
         d="m 1931.37,24.9141 v 33.0664 c 0,12.4492 -7.93,20.8281 -20.73,20.9414 -6.72,0.1133 -13.66,-1.9805 -18.52,-9.375 -3.63,5.8437 -9.36,9.375 -17.4,9.375 -5.63,0 -11.14,-1.6563 -15.43,-7.8203 v 6.4961 h -11.47 V 24.9141 h 11.56 v 29.207 c 0,9.1484 5.07,14 12.91,14 7.61,0 11.46,-4.957 11.46,-13.8867 V 24.9141 h 11.57 v 29.207 c 0,9.1484 5.29,14 12.9,14 7.82,0 11.56,-4.957 11.56,-13.8867 V 24.9141 Z m 171.28,52.6836 h -18.73 V 93.582 h -11.59 V 77.5977 h -10.68 V 67.125 h 10.68 V 43.0938 c 0,-12.2227 4.75,-19.504 18.29,-19.504 4.98,0 10.7,1.5391 14.33,4.0782 l -3.3,9.8125 c -3.42,-1.9805 -7.17,-2.9766 -10.15,-2.9766 -5.72,0 -7.58,3.5313 -7.58,8.8164 V 67.125 h 18.73 z m 97.75,1.3242 c -6.61,0 -10.91,-3.0899 -13.88,-7.7188 v 6.3946 h -11.34 V 24.9141 h 11.45 v 29.5351 c 0,8.7149 3.74,13.5586 11.24,13.5586 2.31,0 4.74,-0.3242 7.16,-1.3203 l 3.53,10.793 c -2.54,0.9961 -5.84,1.4414 -8.16,1.4414 m -147.8,-5.5117 c -5.51,3.6328 -13.11,5.5117 -21.49,5.5117 -13.34,0 -21.93,-6.3946 -21.93,-16.8633 0,-8.5938 6.4,-13.8945 18.18,-15.543 l 5.41,-0.7734 c 6.28,-0.8828 9.25,-2.5313 9.25,-5.5117 0,-4.0782 -4.19,-6.3946 -12.01,-6.3946 -7.94,0 -13.66,2.5313 -17.53,5.5118 l -5.39,-8.918 c 6.28,-4.6328 14.21,-6.8399 22.8,-6.8399 15.22,0 24.04,7.168 24.04,17.1993 0,9.2578 -6.94,14.1015 -18.41,15.7539 l -5.4,0.7812 c -4.95,0.6563 -8.93,1.6406 -8.93,5.1719 0,3.8633 3.75,6.168 10.03,6.168 6.72,0 13.23,-2.5352 16.43,-4.5118 z m 307.07,5.5117 c -6.61,0 -10.91,-3.0899 -13.89,-7.7188 v 6.3946 h -11.36 V 24.9141 h 11.48 v 29.5351 c 0,8.7149 3.74,13.5586 11.24,13.5586 2.31,0 4.73,-0.3242 7.16,-1.3203 l 3.53,10.793 c -2.54,0.9961 -5.84,1.4414 -8.16,1.4414 M 2211.98,51.2578 c 0,-15.9844 11.13,-27.668 28.11,-27.668 7.94,0 13.22,1.7696 18.95,6.2852 l -5.51,9.2578 c -4.29,-3.0898 -8.81,-4.7422 -13.78,-4.7422 -9.15,0.1133 -15.87,6.7227 -15.87,16.8672 0,10.1406 6.72,16.75 15.87,16.8633 4.97,0 9.49,-1.6484 13.78,-4.7422 l 5.51,9.2578 c -5.73,4.5196 -11.01,6.2852 -18.95,6.2852 -16.98,0 -28.11,-11.6836 -28.11,-27.6641 m 107.35,0 v 26.3399 h -11.46 v -6.3946 c -3.64,4.7422 -9.14,7.7188 -16.64,7.7188 -14.77,0 -26.35,-11.5821 -26.35,-27.6641 0,-16.1015 11.58,-27.668 26.35,-27.668 7.5,0 13,2.9805 16.64,7.7188 v -6.3945 h 11.46 z m -42.65,0 c 0,9.2578 6.06,16.8633 15.98,16.8633 9.47,0 15.86,-7.2734 15.86,-16.8633 0,-9.5859 -6.39,-16.8672 -15.86,-16.8672 -9.92,0 -15.98,7.6094 -15.98,16.8672 m -138.32,27.6641 c -15.44,0 -26.24,-11.2383 -26.24,-27.6641 0,-16.7539 11.24,-27.668 27.01,-27.668 7.93,0 15.21,1.9844 21.6,7.3829 l -5.61,8.4882 c -4.42,-3.5156 -10.05,-5.5156 -15.34,-5.5156 -7.38,0 -14.1,3.418 -15.75,12.9063 h 39.12 c 0.11,1.4257 0.23,2.8672 0.23,4.4062 -0.12,16.4258 -10.26,27.6641 -25.02,27.6641 m -0.23,-10.2578 c 7.39,0 12.12,-4.6289 13.33,-12.7774 h -27.33 c 1.22,7.6055 5.84,12.7774 14,12.7774 M 2425.7,51.2578 V 98.75 h -11.47 V 71.2031 c -3.63,4.7422 -9.14,7.7188 -16.64,7.7188 -14.77,0 -26.35,-11.5821 -26.35,-27.6641 0,-16.1015 11.58,-27.668 26.35,-27.668 7.5,0 13.01,2.9805 16.64,7.7188 v -6.3945 h 11.47 z m -42.66,0 c 0,9.2578 6.06,16.8633 15.97,16.8633 9.5,0 15.88,-7.2734 15.88,-16.8633 0,-9.5859 -6.38,-16.8672 -15.88,-16.8672 -9.91,0 -15.97,7.6094 -15.97,16.8672 m -387.09,0 v 26.3399 h -11.46 v -6.3946 c -3.63,4.7422 -9.15,7.7188 -16.64,7.7188 -14.77,0 -26.36,-11.5821 -26.36,-27.6641 0,-16.1015 11.59,-27.668 26.36,-27.668 7.49,0 13.01,2.9805 16.64,7.7188 v -6.3945 h 11.46 z m -42.66,0 c 0,9.2578 6.07,16.8633 15.99,16.8633 9.47,0 15.87,-7.2734 15.87,-16.8633 0,-9.5859 -6.4,-16.8672 -15.87,-16.8672 -9.92,0 -15.99,7.6094 -15.99,16.8672 m 491.5,-18.707 2.09,-0.4219 1.69,-1.1211 1.14,-1.664 0.42,-2.0313 -0.42,-2.0312 -1.14,-1.668 -1.69,-1.1211 -2.09,-0.4141 -2.1,0.4141 -1.7,1.1211 -1.14,1.668 -0.42,2.0312 0.42,2.0313 1.14,1.664 1.7,1.1211 2.1,0.4219 m 0,-9.3281 1.59,0.3281 1.29,0.875 0.86,1.2969 0.32,1.5898 -0.32,1.5898 -0.86,1.3008 -1.29,0.8672 -1.59,0.3047 -1.6,-0.3047 -1.31,-0.8672 -0.86,-1.3008 -0.31,-1.5898 0.31,-1.5898 0.86,-1.2969 1.31,-0.875 1.6,-0.3281 m 0.33,6.539 1.43,-0.4179 0.51,-1.1329 -0.41,-0.9961 -1.14,-0.4804 1.59,-1.8321 h -1.24 l -1.48,1.8165 h -0.47 v -1.8165 h -1.04 v 4.8594 z m -1.21,-0.9062 v -1.3047 h 1.19 l 0.66,0.164 0.24,0.4961 -0.24,0.4766 -0.66,0.168 h -1.19"
         style="fill:#211d1d;fill-opacity:1;fill-rule:nonzero;stroke:none"
         id="path22" />
      <path
         d="m 2438.24,28.8555 v 6.3789 h 2.57 v 1.3008 h -6.56 v -1.3008 h 2.58 v -6.3789 z m 12.73,0 v 7.6953 h -2.01 l -2.32,-5.2891 -2.3,5.2891 h -2.03 v -7.6953 h 1.43 v 5.8008 l 2.17,-5.0118 h 1.47 l 2.17,5.0235 v -5.8125 h 1.42"
         style="fill:#f68812;fill-opacity:1;fill-rule:nonzero;stroke:none"
         id="path24" />
      <path
         d="m 2222.88,160.934 h -173.6 v 312.004 h 173.6 V 160.934"
         style="fill:#f14d1c;fill-opacity:1;fill-rule:nonzero;stroke:none"
         id="path26" />
      <path
         d="m 2060.4,319.23 c 0,63.29 29.63,119.668 75.78,156 -33.75,26.567 -76.34,42.422 -122.63,42.422 -109.57,0 -198.39,-88.836 -198.39,-198.422 0,-109.589 88.82,-198.429 198.39,-198.429 46.29,0 88.88,15.859 122.63,42.429 -46.15,36.329 -75.78,92.708 -75.78,156"
         style="fill:#ea1c24;fill-opacity:1;fill-rule:nonzero;stroke:none"
         id="path28" />
      <path
         d="m 2457.02,319.23 c 0,-109.589 -88.82,-198.429 -198.4,-198.429 -46.29,0 -88.87,15.859 -122.63,42.429 46.16,36.329 75.8,92.708 75.8,156 0,63.29 -29.64,119.668 -75.8,156 33.76,26.567 76.34,42.422 122.63,42.422 109.58,0 198.4,-88.836 198.4,-198.422"
         style="fill:#f69411;fill-opacity:1;fill-rule:nonzero;stroke:none"
         id="path30" />
      <path
         d="m 3519.3,53.7305 c 0,-25.4102 -20.6,-46.00394 -46,-46.00394 h -686.19 c -25.4,0 -46,20.59374 -46,46.00394 V 498.395 c 0,25.406 20.6,46 46,46 h 686.19 c 25.4,0 46,-20.594 46,-46 V 53.7305"
         style="fill:#4269bb;fill-opacity:1;fill-rule:nonzero;stroke:none"
         id="path32" />
      <path
         d="m 2819.82,7.72656 h -32.71 c -25.4,0 -46,20.59374 -46,46.00394 V 498.395 c 0,25.406 20.6,46 46,46 h 32.71 c -25.41,0 -46,-20.594 -46,-46 V 53.7305 c 0,-25.4102 20.59,-46.00394 46,-46.00394"
         style="fill:#395db2;fill-opacity:1;fill-rule:nonzero;stroke:none"
         id="path34" />
      <path
         d="m 2854.48,329.641 h 23.25 l -11.62,29.593 z"
         style="fill:#ffffff;fill-opacity:1;fill-rule:nonzero;stroke:none"
         id="path36" />
      <path
         d="m 2978.13,230.305 v -13.746 h 39.11 v -14.801 h -39.11 v -15.852 h 43.33 l 20.08,22.196 -19.02,22.203 h -44.39"
         style="fill:#ffffff;fill-opacity:1;fill-rule:nonzero;stroke:none"
         id="path38" />
      <path
         d="m 3283.55,359.234 -12.67,-29.593 h 24.3 z"
         style="fill:#ffffff;fill-opacity:1;fill-rule:nonzero;stroke:none"
         id="path40" />
      <path
         d="m 3091.22,177.457 v 60.238 l -27.48,-29.593 z"
         style="fill:#ffffff;fill-opacity:1;fill-rule:nonzero;stroke:none"
         id="path42" />
      <path
         d="m 3143,220.789 c -1.06,6.336 -5.29,9.516 -11.63,9.516 h -22.19 v -19.024 h 23.25 c 6.34,-0.004 10.57,3.164 10.57,9.508"
         style="fill:#ffffff;fill-opacity:1;fill-rule:nonzero;stroke:none"
         id="path44" />
      <path
         d="m 3216.97,213.387 c 2.12,1.058 3.18,4.23 3.18,7.394 1.06,4.227 -1.06,6.344 -3.18,7.403 -2.11,1.054 -5.28,1.054 -8.45,1.054 h -21.14 v -16.906 h 21.14 c 3.17,0 6.34,0 8.45,1.055"
         style="fill:#ffffff;fill-opacity:1;fill-rule:nonzero;stroke:none"
         id="path46" />
      <path
         d="m 3400.87,297.938 h -23.25 l -33.82,56.015 v -46.504 l -0.11,0.11 v -9.672 h -17.86 v 0.043 h -17.97 l -6.34,15.855 h -36.99 l -6.34,-16.902 h -20.08 c -8.44,0 -19.02,2.109 -25.36,8.449 -6.34,6.34 -9.51,14.797 -9.51,28.531 0,10.567 2.11,21.145 9.51,29.594 5.28,6.348 14.8,8.453 26.42,8.453 h 16.91 v -15.847 h -16.91 c -6.34,0 -9.5,-1.051 -13.74,-4.231 -3.16,-3.168 -5.28,-9.508 -5.28,-16.902 0,-8.457 1.05,-13.742 5.28,-17.969 3.17,-3.176 7.4,-4.234 12.68,-4.234 h 7.4 l 24.3,58.125 h 10.58 15.85 l 29.59,-70.805 v 3.613 23.867 2.11 41.215 h 26.43 l 30.63,-51.782 v 51.782 h 17.98 V 297.93 Z m -206.09,0 h -17.96 v 73.98 h 17.96 z m -35.58,30.871 0.1,-0.063 1.03,-1.25 c 2.02,-2.656 3.65,-6.601 3.74,-12.391 l 0.02,-0.3 0.01,-0.164 -0.01,-0.094 0.04,-1.817 v -14.8 h -15.85 v 8.465 c 0,4.222 0,10.566 -3.17,14.793 -1,0.996 -2.01,1.656 -3.11,2.125 -1.58,1.023 -4.59,1.039 -9.57,1.039 h -19.02 V 297.93 h -17.97 v 73.98 h 40.16 c 9.51,0 15.85,0 21.14,-3.168 5.17,-3.109 8.31,-8.265 8.43,-16.429 -0.25,-11.25 -7.47,-17.422 -12.66,-19.504 0,0 3.52,-0.707 6.69,-4 z m -75.38,27.254 h -41.22 v -13.739 h 40.16 V 327.531 H 3042.6 V 312.73 h 41.22 v -15.847 h -59.18 v 75.027 h 59.18 z m -72.92,-58.125 h -16.92 v 58.125 l -1.05,-2.422 v 0.027 l -24.59,-55.73 h -0.78 -5.65 -9.15 l -25.36,58.125 v -58.125 h -35.93 l -7.4,15.847 h -35.94 l -7.39,-15.847 h -18.58 l 31.27,73.98 h 26.41 l 29.59,-70.809 v 70.809 h 6.34 21.66 l 0.5,-1.063 h 0.04 l 13.34,-29.023 9.57,-21.742 0.34,1.098 21.13,50.73 h 28.55 z m 358.26,88.773 v -12.68 l -6.34,12.68 h -49.67 v -12.68 l -6.34,12.68 h -67.64 c -11.62,0 -21.14,-2.113 -29.59,-6.344 v 6.344 h -47.56 v -1.055 -5.289 c -5.28,4.231 -11.62,6.344 -20.08,6.344 H 2971.8 l -11.63,-26.422 -11.63,26.422 h -38.04 -15.86 v -12.68 l -5.29,12.68 h -1.05 -45.44 l -21.14,-49.668 -24.31,-53.898 -0.45,-1.059 h 0.45 53.9 0.68 l 0.38,1.059 6.34,15.851 h 13.74 l 6.35,-16.91 h 61.29 v 1.059 11.621 l 5.28,-12.68 h 30.65 l 5.28,12.68 v -11.621 -1.059 h 24.3 121.55 1.05 v 27.477 h 2.12 c 2.11,0 2.11,0 2.11,-3.168 v -23.254 h 76.09 v 6.343 c 6.34,-3.175 15.85,-6.343 28.54,-6.343 h 31.71 l 6.34,16.91 h 14.79 l 6.34,-16.91 h 61.29 v 10.566 5.285 l 9.52,-15.851 h 2.11 1.05 46.51 v 103.57 h -47.56"
         style="fill:#ffffff;fill-opacity:1;fill-rule:nonzero;stroke:none"
         id="path48" />
      <path
         d="m 3144.13,341.102 0.82,1.132 c 0.96,1.516 2.06,4.246 1.47,7.973 l -0.16,0.961 -0.04,0.246 h -0.01 c -0.53,1.805 -1.87,2.918 -3.21,3.598 -2.12,1.051 -5.29,1.051 -8.46,1.051 h -21.14 v -16.911 h 21.14 c 3.17,0 6.34,0 8.46,1.059 l 0.88,0.625 v -0.016 l 0.25,0.282"
         style="fill:#ffffff;fill-opacity:1;fill-rule:nonzero;stroke:none"
         id="path50" />
      <path
         d="m 3444.2,178.516 c -4.22,-4.231 -11.62,-7.403 -22.2,-7.403 h -33.81 v 15.852 H 3422 c 3.18,0 5.29,0 7.4,2.113 1.06,1.059 2.11,3.168 2.11,5.289 0,2.113 -1.05,4.219 -2.11,5.278 -1.06,1.058 -3.17,2.113 -6.34,2.113 -16.91,1.062 -36.99,0 -36.99,23.25 0,10.043 5.75,19.121 19.93,21.808 1.68,0.235 3.47,0.387 5.43,0.387 h 34.89 v -17.965 h -23.26 -8.45 -1.06 c -3.17,0 -5.28,0 -7.4,-1.054 -1.05,-1.059 -2.12,-3.176 -2.12,-5.286 0,-3.175 1.07,-4.23 4.24,-5.281 2.11,-1.058 4.22,-1.058 6.34,-1.058 h 1.05 8.46 c 4.62,0 8.11,-0.571 11.31,-1.696 2.92,-1.058 12.62,-5.39 14.78,-16.707 0.19,-1.187 0.33,-2.422 0.33,-3.789 0,-6.344 -2.11,-11.625 -6.34,-15.851 z m -90.89,-7.403 h -33.82 v 15.852 h 33.82 c 3.16,0 5.28,0 7.4,2.113 1.06,1.059 2.11,3.168 2.11,5.289 0,2.113 -1.05,4.219 -2.11,5.278 -1.06,1.058 -3.17,2.113 -6.35,2.113 -16.91,1.062 -36.99,0 -36.99,23.25 0,10.57 6.35,22.195 25.37,22.195 h 34.88 v -17.965 h -32.77 c -3.16,0 -5.28,0 -7.4,-1.054 -2.11,-1.059 -2.11,-3.176 -2.11,-5.286 0,-3.175 2.11,-4.23 4.23,-5.281 2.12,-1.058 4.23,-1.058 6.34,-1.058 h 9.51 c 9.51,0 15.85,-2.114 20.08,-6.344 3.17,-3.172 5.29,-8.457 5.29,-15.848 0,-15.851 -9.51,-23.254 -27.48,-23.254 z m -44.38,59.192 h -41.23 v -13.742 h 40.16 v -14.797 h -40.16 v -14.801 h 41.23 v -15.852 h -59.18 v 75.035 h 59.18 z m -72.92,-30.657 c 2.1,-3.164 3.16,-7.394 3.16,-13.742 v -14.793 h -17.96 v 9.508 c 0,4.238 0,11.633 -3.17,14.805 -2.11,3.164 -6.35,3.164 -12.69,3.164 h -19.01 v -27.477 h -17.97 v 75.035 h 40.15 c 8.45,0 15.85,0 21.15,-3.168 5.27,-3.175 9.5,-8.457 9.5,-16.914 0,-11.621 -7.39,-17.964 -12.68,-20.078 5.29,-2.105 8.46,-4.23 9.52,-6.34 z m -105.69,-1.058 h -21.14 v -27.477 h -34.74 l -20.21,23.254 -0.08,-0.078 -0.99,1.137 -23.25,-24.313 h -67.64 v 73.977 h 68.71 l 18.77,-20.559 3.94,-4.301 0.53,0.551 22.2,24.309 h 56.01 c 10.87,0 23.04,-2.68 27.66,-13.746 0.55,-2.188 0.88,-4.625 0.88,-7.387 0,-21.137 -14.81,-25.367 -30.65,-25.367 z m 332.9,-6.344 c 0,7.399 -2.11,14.801 -5.28,20.086 v 47.551 h -0.05 v 3.176 c 0,0 -44.3,0 -50.89,0 -6.59,0 -14.59,-6.34 -14.59,-6.34 v 6.34 h -48.61 c -7.4,0 -16.91,-2.114 -21.14,-6.34 v 6.34 h -86.65 v -3.176 -3.164 c -6.34,5.285 -17.98,6.344 -23.26,6.344 h -57.07 v -3.18 -3.156 c -5.28,5.277 -17.97,6.336 -24.31,6.336 h -63.4 l -14.81,-15.856 -13.74,15.856 h -4.42 -7.2 -83.48 v -3.172 -8.352 -95.223 h 92.99 l 15.29,15.286 13.24,-15.286 h 1.06 53.59 2.43 1.05 1.06 v 10.571 13.734 h 5.29 c 7.39,0 16.91,0 24.3,3.18 v -26.422 -2.117 h 47.56 v 2.117 25.363 h 2.11 c 3.17,0 3.17,0 3.17,-3.172 v -22.191 -2.117 h 143.73 c 9.52,0 19.02,2.117 24.31,6.347 v -4.23 -2.117 h 45.45 c 9.5,0 19.02,1.054 25.36,5.285 9.73,5.836 15.87,16.172 16.78,28.496 l 0.12,1.094 -0.06,0.058 0.07,2.051"
         style="fill:#ffffff;fill-opacity:1;fill-rule:nonzero;stroke:none"
         id="path52" />
    </g>
  </g>
</svg>
