<?xml version="1.0" encoding="UTF-8" standalone="no"?>
<!-- Created with Inkscape (http://www.inkscape.org/) -->

<svg
   width="600"
   height="200"
   viewBox="0 0 158.75 52.91665"
   version="1.1"
   id="svg5"
   xml:space="preserve"
   xmlns="http://www.w3.org/2000/svg"
   xmlns:svg="http://www.w3.org/2000/svg"><defs
     id="defs2"><linearGradient
       id="paint0_linear"
       x1="10.4393"
       y1="28.0495"
       x2="18.5308"
       y2="77.7399"
       gradientUnits="userSpaceOnUse"><stop
         stop-color="#2CCAFE"
         id="stop835" /><stop
         offset="1"
         stop-color="#0A91E7"
         id="stop837" /></linearGradient><linearGradient
       id="paint1_linear"
       x1="47.4054"
       y1="24.395"
       x2="37.9644"
       y2="42.1744"
       gradientUnits="userSpaceOnUse"><stop
         stop-color="#2CCAFE"
         id="stop840" /><stop
         offset="1"
         stop-color="#0A91E7"
         id="stop842" /></linearGradient><linearGradient
       id="paint2_linear"
       x1="113.154"
       y1="54.7985"
       x2="111.597"
       y2="-1.76718"
       gradientUnits="userSpaceOnUse"><stop
         stop-color="#FF8741"
         id="stop845" /><stop
         offset="1"
         stop-color="#FFA537"
         id="stop847" /></linearGradient><linearGradient
       id="paint3_linear"
       x1="78.427"
       y1="60.5058"
       x2="85.637"
       y2="47.427"
       gradientUnits="userSpaceOnUse"><stop
         stop-color="#FF8043"
         id="stop850" /><stop
         offset="1"
         stop-color="#FFA636"
         id="stop852" /></linearGradient></defs><g
     id="layer1"><g
       id="g1460"><rect
         style="fill:#ffffff;stroke-width:1.16744;stroke-linecap:round;stroke-linejoin:round;stop-color:#000000"
         id="rect234"
         width="158.75"
         height="52.91667"
         x="-2.4869e-14"
         y="-2.543132e-06" /><g
         transform="matrix(1.209445,0,0,1.209445,25.90987,-337.42)"
         id="layer1-7"><g
           id="g4158"
           transform="matrix(0.1810726,0,0,0.1810726,-23.27274,279.477)"><polygon
             points="109.296,24.995 127.582,24.995 116.145,95.719 97.858,95.719 "
             id="polygon9"
             style="fill:#00579f" /><path
             d="m 182.437,26.724 c -3.607,-1.431 -9.328,-3.011 -16.402,-3.011 -18.059,0 -30.776,9.63 -30.854,23.398 -0.15,10.158 9.105,15.8 16.027,19.187 7.075,3.461 9.48,5.72 9.48,8.805 -0.072,4.738 -5.717,6.922 -10.982,6.922 -7.301,0 -11.213,-1.126 -17.158,-3.762 l -2.408,-1.13 -2.559,15.876 c 4.289,1.954 12.191,3.688 20.395,3.764 19.188,0 31.68,-9.481 31.828,-24.153 0.073,-8.051 -4.814,-14.22 -15.35,-19.261 -6.396,-3.236 -10.313,-5.418 -10.313,-8.729 0.075,-3.01 3.313,-6.093 10.533,-6.093 5.945,-0.151 10.313,1.278 13.622,2.708 l 1.654,0.751 z"
             id="path11"
             style="fill:#00579f" /><path
             d="m 206.742,70.664 c 1.506,-4.063 7.301,-19.788 7.301,-19.788 -0.076,0.151 1.503,-4.138 2.406,-6.771 l 1.278,6.094 c 0,0 3.463,16.929 4.215,20.465 -2.858,0 -11.588,0 -15.2,0 z M 229.315,24.995 H 215.17 c -4.362,0 -7.676,1.278 -9.558,5.868 l -27.163,64.855 h 19.188 c 0,0 3.159,-8.729 3.838,-10.609 2.105,0 20.771,0 23.479,0 0.525,2.483 2.182,10.609 2.182,10.609 h 16.932 z"
             id="path13"
             style="fill:#00579f" /><path
             d="M 82.584,24.995 64.675,73.222 62.718,63.441 C 59.407,52.155 49.023,39.893 37.435,33.796 l 16.404,61.848 h 19.338 l 28.744,-70.649 z"
             id="path15"
             style="fill:#00579f" /><path
             d="M 48.045,24.995 H 18.623 l -0.301,1.429 c 22.951,5.869 38.151,20.016 44.396,37.02 L 56.322,30.94 c -1.053,-4.517 -4.289,-5.796 -8.277,-5.945 z"
             id="path17"
             style="fill:#faa61a" /></g><g
           transform="matrix(0.0850432,0,0,0.0850432,162.2578,189.6494)"
           id="g88"><g
             transform="matrix(3.1437,0,0,3.1437,-4835.7,-1027.6)"
             id="g86"><g
               transform="matrix(1.25,0,0,-1.25,1102.5,727.74)"
               id="g70"><path
                 style="fill:#231f20"
                 d="m 0,0 v -0.103 h 0.095 c 0.021,0 0.039,0.005 0.052,0.013 0.012,0.008 0.019,0.022 0.019,0.039 0,0.017 -0.007,0.03 -0.019,0.038 C 0.134,-0.004 0.116,0 0.095,0 Z M 0.096,0.072 C 0.145,0.072 0.183,0.061 0.21,0.039 0.237,0.017 0.25,-0.013 0.25,-0.051 0.25,-0.083 0.24,-0.109 0.218,-0.13 0.197,-0.15 0.167,-0.163 0.127,-0.168 L 0.253,-0.313 H 0.155 L 0.038,-0.169 H 0 V -0.313 H -0.082 V 0.072 Z M 0.071,-0.446 c 0.045,0 0.087,0.009 0.125,0.026 0.039,0.017 0.073,0.04 0.102,0.069 0.029,0.029 0.052,0.063 0.069,0.103 0.016,0.039 0.025,0.081 0.025,0.126 0,0.045 -0.009,0.087 -0.025,0.126 C 0.35,0.043 0.327,0.078 0.298,0.107 0.269,0.136 0.235,0.159 0.196,0.176 0.158,0.192 0.116,0.2 0.071,0.2 0.026,0.2 -0.017,0.192 -0.056,0.176 -0.096,0.159 -0.131,0.136 -0.16,0.107 -0.189,0.078 -0.212,0.043 -0.228,0.004 c -0.017,-0.039 -0.025,-0.081 -0.025,-0.126 0,-0.045 0.008,-0.087 0.025,-0.126 0.016,-0.04 0.039,-0.074 0.068,-0.103 0.029,-0.029 0.064,-0.052 0.104,-0.069 0.039,-0.017 0.082,-0.026 0.127,-0.026 m 0,0.739 C 0.13,0.293 0.184,0.282 0.236,0.26 0.287,0.239 0.331,0.209 0.37,0.171 0.408,0.134 0.438,0.09 0.46,0.039 0.482,-0.011 0.493,-0.065 0.493,-0.122 0.493,-0.179 0.482,-0.233 0.46,-0.283 0.438,-0.333 0.408,-0.377 0.37,-0.415 0.331,-0.452 0.287,-0.482 0.236,-0.504 0.184,-0.526 0.13,-0.537 0.071,-0.537 c -0.06,0 -0.115,0.011 -0.167,0.033 -0.052,0.022 -0.097,0.052 -0.135,0.089 -0.038,0.038 -0.068,0.082 -0.09,0.132 -0.022,0.05 -0.033,0.104 -0.033,0.161 0,0.057 0.011,0.111 0.033,0.161 0.022,0.051 0.052,0.095 0.09,0.132 0.038,0.038 0.083,0.068 0.135,0.089 0.052,0.022 0.107,0.033 0.167,0.033 M -38.89,1.776 c 0,0.734 0.481,1.337 1.267,1.337 0.751,0 1.258,-0.577 1.258,-1.337 0,-0.76 -0.507,-1.337 -1.258,-1.337 -0.786,0 -1.267,0.603 -1.267,1.337 m 3.381,0 v 2.088 h -0.908 V 3.357 c -0.288,0.376 -0.725,0.612 -1.319,0.612 -1.171,0 -2.089,-0.918 -2.089,-2.193 0,-1.276 0.918,-2.193 2.089,-2.193 0.594,0 1.031,0.236 1.319,0.612 v -0.507 h 0.908 z m 30.684,0 c 0,0.734 0.481,1.337 1.267,1.337 0.752,0 1.258,-0.577 1.258,-1.337 0,-0.76 -0.506,-1.337 -1.258,-1.337 -0.786,0 -1.267,0.603 -1.267,1.337 m 3.382,0 V 5.541 H -2.352 V 3.357 c -0.288,0.376 -0.725,0.612 -1.319,0.612 -1.171,0 -2.089,-0.918 -2.089,-2.193 0,-1.276 0.918,-2.193 2.089,-2.193 0.594,0 1.031,0.236 1.319,0.612 v -0.507 h 0.909 z m -22.795,1.38 c 0.585,0 0.961,-0.367 1.057,-1.013 h -2.167 c 0.097,0.603 0.463,1.013 1.11,1.013 m 0.018,0.813 c -1.224,0 -2.08,-0.891 -2.08,-2.193 0,-1.328 0.891,-2.193 2.141,-2.193 0.629,0 1.205,0.157 1.712,0.585 l -0.445,0.673 c -0.35,-0.279 -0.796,-0.437 -1.215,-0.437 -0.585,0 -1.118,0.271 -1.249,1.023 h 3.101 c 0.009,0.113 0.018,0.227 0.018,0.349 -0.009,1.302 -0.813,2.193 -1.983,2.193 m 10.964,-2.193 c 0,0.734 0.481,1.337 1.267,1.337 0.751,0 1.258,-0.577 1.258,-1.337 0,-0.76 -0.507,-1.337 -1.258,-1.337 -0.786,0 -1.267,0.603 -1.267,1.337 m 3.381,0 v 2.088 h -0.908 V 3.357 c -0.289,0.376 -0.725,0.612 -1.319,0.612 -1.171,0 -2.089,-0.918 -2.089,-2.193 0,-1.276 0.918,-2.193 2.089,-2.193 0.594,0 1.03,0.236 1.319,0.612 v -0.507 h 0.908 z m -8.509,0 c 0,-1.267 0.882,-2.193 2.228,-2.193 0.629,0 1.048,0.14 1.502,0.498 l -0.436,0.734 c -0.341,-0.245 -0.699,-0.376 -1.093,-0.376 -0.725,0.009 -1.258,0.533 -1.258,1.337 0,0.804 0.533,1.328 1.258,1.337 0.394,0 0.752,-0.131 1.093,-0.376 l 0.436,0.734 c -0.454,0.358 -0.873,0.498 -1.502,0.498 -1.346,0 -2.228,-0.926 -2.228,-2.193 m 11.707,2.193 c -0.524,0 -0.865,-0.245 -1.101,-0.612 v 0.507 h -0.9 v -4.176 h 0.909 v 2.341 c 0,0.691 0.297,1.075 0.891,1.075 0.184,0 0.376,-0.026 0.568,-0.105 l 0.28,0.856 C -6.231,3.934 -6.493,3.969 -6.677,3.969 M -31.018,3.532 c -0.437,0.288 -1.039,0.437 -1.703,0.437 -1.058,0 -1.739,-0.507 -1.739,-1.337 0,-0.681 0.507,-1.101 1.441,-1.232 l 0.429,-0.061 c 0.498,-0.07 0.733,-0.201 0.733,-0.437 0,-0.323 -0.332,-0.507 -0.952,-0.507 -0.629,0 -1.083,0.201 -1.389,0.437 l -0.428,-0.707 c 0.498,-0.367 1.127,-0.542 1.808,-0.542 1.206,0 1.905,0.568 1.905,1.363 0,0.734 -0.55,1.118 -1.459,1.249 L -32.8,2.257 c -0.393,0.052 -0.708,0.13 -0.708,0.41 0,0.306 0.297,0.489 0.795,0.489 0.533,0 1.049,-0.201 1.302,-0.358 z m 11.716,0.437 c -0.524,0 -0.865,-0.245 -1.1,-0.612 v 0.507 h -0.9 v -4.176 h 0.908 v 2.341 c 0,0.691 0.297,1.075 0.891,1.075 0.184,0 0.376,-0.026 0.568,-0.105 l 0.28,0.856 c -0.201,0.079 -0.463,0.114 -0.647,0.114 m -7.749,-0.105 h -1.485 v 1.267 h -0.918 V 3.864 h -0.847 v -0.83 h 0.847 V 1.129 c 0,-0.969 0.376,-1.546 1.45,-1.546 0.394,0 0.848,0.122 1.136,0.323 l -0.262,0.778 c -0.271,-0.157 -0.568,-0.236 -0.804,-0.236 -0.454,0 -0.602,0.28 -0.602,0.699 v 1.887 h 1.485 z m -13.577,-4.176 v 2.621 c 0,0.987 -0.629,1.651 -1.643,1.66 -0.533,0.009 -1.083,-0.157 -1.468,-0.743 -0.288,0.463 -0.742,0.743 -1.38,0.743 -0.446,0 -0.882,-0.131 -1.223,-0.62 v 0.515 h -0.909 v -4.176 h 0.917 v 2.315 c 0,0.725 0.402,1.11 1.023,1.11 0.603,0 0.908,-0.393 0.908,-1.101 v -2.324 h 0.918 v 2.315 c 0,0.725 0.419,1.11 1.022,1.11 0.62,0 0.917,-0.393 0.917,-1.101 v -2.324 z"
                 id="path68" /></g><g
               transform="matrix(1.25,0,0,-1.25,1103.2,710.77)"
               id="g74"><path
                 style="fill:#f79410"
                 d="M 0,0 V 0.61 H -0.159 L -0.343,0.191 -0.526,0.61 h -0.16 V 0 h 0.113 v 0.46 l 0.172,-0.397 h 0.117 l 0.172,0.398 V 0 Z m -1.009,0 v 0.506 h 0.204 v 0.103 h -0.52 V 0.506 h 0.204 V 0 Z"
                 id="path72" /></g><path
               style="fill:#ff5f00"
               d="m 1080.6,714.05 h -17.202 v -30.915 h 17.202 z"
               id="path76" /><g
               transform="matrix(1.25,0,0,-1.25,1064.5,698.59)"
               id="g80"><path
                 style="fill:#eb001b"
                 d="m 0,0 c 0,5.017 2.349,9.486 6.007,12.366 -2.675,2.106 -6.051,3.363 -9.72,3.363 -8.686,0 -15.727,-7.042 -15.727,-15.729 0,-8.687 7.041,-15.729 15.727,-15.729 3.669,0 7.045,1.257 9.72,3.363 C 2.349,-9.486 0,-5.017 0,0"
                 id="path78" /></g><g
               transform="matrix(1.25,0,0,-1.25,1103.8,698.59)"
               id="g84"><path
                 style="fill:#f79e1b"
                 d="m 0,0 c 0,-8.687 -7.041,-15.729 -15.727,-15.729 -3.669,0 -7.045,1.257 -9.721,3.363 3.659,2.88 6.008,7.349 6.008,12.366 0,5.017 -2.349,9.486 -6.008,12.366 2.676,2.106 6.052,3.363 9.721,3.363 C -7.041,15.729 0,8.687 0,0"
                 id="path82" /></g></g></g><g
           transform="matrix(0.4383712,0,0,0.4383712,54.19125,283.7708)"
           id="g153"><path
             style="fill:#253b80"
             d="m 46.211,6.749 h -6.839 a 0.95,0.95 0 0 0 -0.939,0.802 l -2.766,17.537 a 0.57,0.57 0 0 0 0.564,0.658 h 3.265 a 0.95,0.95 0 0 0 0.939,-0.803 l 0.746,-4.73 a 0.95,0.95 0 0 1 0.938,-0.803 h 2.165 c 4.505,0 7.105,-2.18 7.784,-6.5 C 52.374,11.02 52.081,9.535 51.196,8.495 50.224,7.353 48.5,6.749 46.211,6.749 Z M 47,13.154 c -0.374,2.454 -2.249,2.454 -4.062,2.454 h -1.032 l 0.724,-4.583 a 0.57,0.57 0 0 1 0.563,-0.481 h 0.473 c 1.235,0 2.4,0 3.002,0.704 0.359,0.42 0.469,1.044 0.332,1.906 z m 19.654,-0.079 h -3.275 a 0.57,0.57 0 0 0 -0.563,0.481 l -0.145,0.916 -0.229,-0.332 c -0.709,-1.029 -2.29,-1.373 -3.868,-1.373 -3.619,0 -6.71,2.741 -7.312,6.586 -0.313,1.918 0.132,3.752 1.22,5.031 0.998,1.176 2.426,1.666 4.125,1.666 2.916,0 4.533,-1.875 4.533,-1.875 l -0.146,0.91 a 0.57,0.57 0 0 0 0.562,0.66 h 2.95 a 0.95,0.95 0 0 0 0.939,-0.803 l 1.77,-11.209 a 0.568,0.568 0 0 0 -0.561,-0.658 z m -4.565,6.374 c -0.316,1.871 -1.801,3.127 -3.695,3.127 -0.951,0 -1.711,-0.305 -2.199,-0.883 -0.484,-0.574 -0.668,-1.391 -0.514,-2.301 0.295,-1.855 1.805,-3.152 3.67,-3.152 0.93,0 1.686,0.309 2.184,0.892 0.499,0.589 0.697,1.411 0.554,2.317 z m 22.007,-6.374 h -3.291 a 0.954,0.954 0 0 0 -0.787,0.417 l -4.539,6.686 -1.924,-6.425 a 0.953,0.953 0 0 0 -0.912,-0.678 h -3.234 a 0.57,0.57 0 0 0 -0.541,0.754 l 3.625,10.638 -3.408,4.811 a 0.57,0.57 0 0 0 0.465,0.9 h 3.287 a 0.949,0.949 0 0 0 0.781,-0.408 l 10.946,-15.8 a 0.57,0.57 0 0 0 -0.468,-0.895 z"
             id="path127" /><path
             style="fill:#179bd7"
             d="m 94.992,6.749 h -6.84 a 0.95,0.95 0 0 0 -0.938,0.802 l -2.766,17.537 a 0.569,0.569 0 0 0 0.562,0.658 h 3.51 a 0.665,0.665 0 0 0 0.656,-0.562 l 0.785,-4.971 a 0.95,0.95 0 0 1 0.938,-0.803 h 2.164 c 4.506,0 7.105,-2.18 7.785,-6.5 0.307,-1.89 0.012,-3.375 -0.873,-4.415 C 99.004,7.353 97.281,6.749 94.992,6.749 Z m 0.789,6.405 c -0.373,2.454 -2.248,2.454 -4.062,2.454 h -1.031 l 0.725,-4.583 a 0.568,0.568 0 0 1 0.562,-0.481 h 0.473 c 1.234,0 2.4,0 3.002,0.704 0.359,0.42 0.468,1.044 0.331,1.906 z m 19.653,-0.079 h -3.273 a 0.567,0.567 0 0 0 -0.562,0.481 l -0.145,0.916 -0.23,-0.332 c -0.709,-1.029 -2.289,-1.373 -3.867,-1.373 -3.619,0 -6.709,2.741 -7.311,6.586 -0.312,1.918 0.131,3.752 1.219,5.031 1,1.176 2.426,1.666 4.125,1.666 2.916,0 4.533,-1.875 4.533,-1.875 l -0.146,0.91 a 0.57,0.57 0 0 0 0.564,0.66 h 2.949 a 0.95,0.95 0 0 0 0.938,-0.803 l 1.771,-11.209 a 0.571,0.571 0 0 0 -0.565,-0.658 z m -4.565,6.374 c -0.314,1.871 -1.801,3.127 -3.695,3.127 -0.949,0 -1.711,-0.305 -2.199,-0.883 -0.484,-0.574 -0.666,-1.391 -0.514,-2.301 0.297,-1.855 1.805,-3.152 3.67,-3.152 0.93,0 1.686,0.309 2.184,0.892 0.501,0.589 0.699,1.411 0.554,2.317 z m 8.426,-12.219 -2.807,17.858 a 0.569,0.569 0 0 0 0.562,0.658 h 2.822 c 0.469,0 0.867,-0.34 0.939,-0.803 l 2.768,-17.536 a 0.57,0.57 0 0 0 -0.562,-0.659 h -3.16 a 0.571,0.571 0 0 0 -0.562,0.482 z"
             id="path129" /><path
             style="fill:#253b80"
             d="M 7.266,29.154 7.789,25.832 6.624,25.805 H 1.061 L 4.927,1.292 A 0.316,0.316 0 0 1 5.241,1.024 h 9.38 c 3.114,0 5.263,0.648 6.385,1.927 0.526,0.6 0.861,1.227 1.023,1.917 0.17,0.724 0.173,1.589 0.007,2.644 l -0.012,0.077 v 0.676 l 0.526,0.298 a 3.69,3.69 0 0 1 1.065,0.812 c 0.45,0.513 0.741,1.165 0.864,1.938 0.127,0.795 0.085,1.741 -0.123,2.812 -0.24,1.232 -0.628,2.305 -1.152,3.183 a 6.547,6.547 0 0 1 -1.825,2 c -0.696,0.494 -1.523,0.869 -2.458,1.109 -0.906,0.236 -1.939,0.355 -3.072,0.355 h -0.73 c -0.522,0 -1.029,0.188 -1.427,0.525 a 2.21,2.21 0 0 0 -0.744,1.328 l -0.055,0.299 -0.924,5.855 -0.042,0.215 c -0.011,0.068 -0.03,0.102 -0.058,0.125 a 0.155,0.155 0 0 1 -0.096,0.035 z"
             id="path131" /><path
             style="fill:#179bd7"
             d="m 23.048,7.667 c -0.028,0.179 -0.06,0.362 -0.096,0.55 -1.237,6.351 -5.469,8.545 -10.874,8.545 H 9.326 c -0.661,0 -1.218,0.48 -1.321,1.132 L 6.596,26.83 6.197,29.363 a 0.704,0.704 0 0 0 0.695,0.814 h 4.881 c 0.578,0 1.069,-0.42 1.16,-0.99 l 0.048,-0.248 0.919,-5.832 0.059,-0.32 c 0.09,-0.572 0.582,-0.992 1.16,-0.992 h 0.73 c 4.729,0 8.431,-1.92 9.513,-7.476 0.452,-2.321 0.218,-4.259 -0.978,-5.622 a 4.667,4.667 0 0 0 -1.336,-1.03 z"
             id="path133" /><path
             style="fill:#222d65"
             d="M 21.754,7.151 A 9.757,9.757 0 0 0 20.551,6.884 15.284,15.284 0 0 0 18.125,6.707 H 10.773 A 1.172,1.172 0 0 0 9.614,7.699 L 8.05,17.605 8.005,17.894 a 1.336,1.336 0 0 1 1.321,-1.132 h 2.752 c 5.405,0 9.637,-2.195 10.874,-8.545 0.037,-0.188 0.068,-0.371 0.096,-0.55 A 6.594,6.594 0 0 0 22.031,7.238 9.045,9.045 0 0 0 21.754,7.151 Z"
             id="path135" /><path
             style="fill:#253b80"
             d="m 9.614,7.699 a 1.169,1.169 0 0 1 1.159,-0.991 h 7.352 c 0.871,0 1.684,0.057 2.426,0.177 a 9.757,9.757 0 0 1 1.481,0.353 c 0.365,0.121 0.704,0.264 1.017,0.429 C 23.417,5.32 23.046,3.722 21.777,2.275 20.378,0.682 17.853,0 14.622,0 H 5.242 C 4.582,0 4.019,0.48 3.917,1.133 L 0.01,25.898 A 0.806,0.806 0 0 0 0.805,26.83 H 6.596 L 8.05,17.605 Z"
             id="path137" /></g></g><g
         id="g1401"><g
           style="fill:none"
           id="g878"
           transform="matrix(0.2136026,0,0,0.2136026,1.77524,32.17314)"><path
             d="M 51.8194,44.5935 C 54.1307,58.8305 44.4806,72.2483 30.2655,74.563 16.0504,76.8778 2.65313,67.2129 0.341925,52.976 -1.96928,38.7391 7.68075,25.3213 21.8959,23.0065 36.111,20.6918 49.5082,30.3566 51.8194,44.5935 Z"
             fill="url(#paint0_linear)"
             id="path825"
             style="fill:url(#paint0_linear)" /><path
             d="m 18.8578,23.7203 c 8.4943,1.6599 19.2205,2.6154 32.5208,19.0431 0.2783,-0.1858 -1.2586,-5.6186 0.7939,-7.3073 2.536,-2.0864 7.9161,-0.5341 8.7872,-2.3716 1.3677,-4.6087 -27.6161,-13.7068 -42.1019,-9.3642 z"
             fill="url(#paint1_linear)"
             id="path827"
             style="fill:url(#paint1_linear)" /><path
             d="M 69.5353,30.1605 C 69.0906,13.9549 81.8472,0.45667 98.028,0.011299 114.209,-0.434072 127.686,12.3421 128.131,28.5477 128.576,44.7532 115.819,58.2515 99.6383,58.6968 83.4576,59.1422 69.98,46.3661 69.5353,30.1605 Z"
             fill="url(#paint2_linear)"
             id="path829"
             style="fill:url(#paint2_linear)" /><path
             d="M 103.129,58.3576 C 93.9159,55.234 82.1106,52.5602 69.7528,32.2653 c -0.3378,0.1652 0.5615,6.4474 -1.9775,8.0205 -3.137,1.9435 -8.8978,-0.5929 -10.143,1.3232 -2.2129,4.9285 28.7115,19.4122 45.4967,16.7486 z"
             fill="url(#paint3_linear)"
             id="path831"
             style="fill:url(#paint3_linear)" /><path
             d="m 225.659,22.9845 c -3.227,0 -6.67,1.0759 -8.606,3.3353 -0.108,-2.1518 -1.399,-3.3353 -3.551,-3.3353 -2.474,0 -3.658,1.2911 -3.658,3.7656 v 34.7508 c 0,2.6897 1.614,3.9808 3.981,3.9808 2.474,0 3.981,-1.3987 3.981,-3.9808 V 50.3118 c 1.829,2.2593 4.841,2.9049 8.068,2.9049 8.5,0 12.373,-7.2084 12.373,-14.9547 0,-10.436 -5.917,-15.2775 -12.588,-15.2775 z M 223.83,46.869 c -4.949,0.1076 -6.455,-4.8414 -6.455,-8.9298 0,-4.5187 1.722,-8.7146 6.455,-8.7146 4.304,0.1076 6.348,3.9808 6.348,8.7146 0.107,3.7656 -1.184,8.9298 -6.348,8.9298 z m 34.965,-23.8845 c -3.227,0 -6.67,1.0759 -8.606,3.3353 -0.216,-2.1518 -1.399,-3.3353 -3.658,-3.3353 -2.475,0 -3.658,1.2911 -3.658,3.7656 v 34.7508 c 0,2.6897 1.614,3.9808 3.98,3.9808 2.475,0 3.981,-1.3987 3.981,-3.9808 V 50.3118 c 1.829,2.2593 4.841,2.9049 8.069,2.9049 8.499,0 12.372,-7.2084 12.372,-14.9547 0.108,-10.436 -5.809,-15.2775 -12.48,-15.2775 z m -1.829,23.8845 c -4.949,0.1076 -6.455,-4.8414 -6.455,-8.9298 0,-4.5187 1.722,-8.7146 6.455,-8.7146 4.304,0.1076 6.348,3.9808 6.348,8.7146 0,3.7656 -1.184,8.9298 -6.348,8.9298 z M 203.497,44.7173 V 31.2688 c 0,-5.8097 -5.379,-8.2843 -13.018,-8.2843 -8.284,0 -12.802,4.0884 -12.802,7.316 0,1.6138 1.398,3.12 3.442,3.12 3.228,0 3.335,-4.411 9.253,-4.411 2.689,0 5.056,0.9682 5.056,3.3352 0,2.2593 -1.506,2.7973 -3.443,3.0124 l -4.949,0.538 c -4.948,0.5379 -11.188,2.6897 -11.188,9.2525 0,5.7021 5.379,7.9615 10.113,8.1767 4.948,0.2151 8.391,-1.2911 10.758,-3.1201 0.43,1.829 1.721,3.1201 4.303,3.1201 1.829,0 3.443,-1.2911 3.443,-3.1201 0,-1.291 -0.968,-2.1517 -0.968,-5.4869 z m -8.069,-5.0567 c 0,5.0567 -2.69,8.2843 -7.101,8.2843 -2.797,0 -4.411,-1.5062 -4.411,-3.3352 0,-2.4746 1.829,-3.4428 5.165,-3.9808 l 2.904,-0.4303 c 0.969,-0.2152 2.582,-0.4304 3.443,-1.2911 z m 94.567,16.7837 c -1.937,5.487 -4.088,8.3918 -9.145,8.3918 h -0.43 c -3.55,0 -5.057,-1.7214 -5.057,-3.6579 0,-2.1518 1.507,-3.2277 3.658,-3.2277 h 0.538 c 1.076,0 2.259,-0.1076 3.12,-2.5821 l 0.323,-0.8607 -8.392,-23.992 c -0.645,-1.9366 -0.968,-2.7973 -0.968,-3.7656 0,-2.1517 1.721,-3.8731 3.873,-3.8731 2.152,0 3.658,1.1834 4.088,3.0124 l 5.164,18.8279 h 0.108 l 5.164,-18.8279 c 0.538,-1.829 1.936,-3.0124 4.088,-3.0124 2.152,0 3.873,1.6138 3.873,3.8731 0,0.9683 -0.323,1.829 -0.968,3.7656 z m -125.874,0 c -1.937,5.487 -4.088,8.3918 -9.145,8.3918 h -0.538 c -3.55,0 -5.056,-1.7214 -5.056,-3.6579 0,-2.1518 1.506,-3.2277 3.658,-3.2277 h 0.538 c 1.076,0 2.259,-0.1076 3.12,-2.5821 l 0.322,-0.8607 -8.391,-23.992 c -0.646,-1.829 -0.968,-2.7973 -0.968,-3.658 0,-2.1518 1.721,-3.8732 3.873,-3.8732 2.151,0 3.657,1.1835 4.088,3.0125 l 5.164,18.8278 h 0.107 l 5.164,-18.8278 c 0.538,-1.829 1.937,-3.0125 4.089,-3.0125 2.151,0 3.873,1.6139 3.873,3.8732 0,0.9683 -0.323,1.829 -0.969,3.7656 z"
             fill="#004c97"
             id="path833" /></g><g
           id="g904"
           transform="matrix(0.0541877,0,0,0.0541877,73.58161,32.17316)"><path
             d="m 62.15,1.45 -61.89,130 a 2.52,2.52 0 0 0 0.54,2.94 l 167.15,160.17 a 2.55,2.55 0 0 0 3.53,0 L 338.63,134.4 a 2.52,2.52 0 0 0 0.54,-2.94 L 277.28,1.46 A 2.5,2.5 0 0 0 275,0 H 64.45 a 2.5,2.5 0 0 0 -2.3,1.45 z"
             style="fill:#50af95;fill-rule:evenodd"
             id="path893" /><path
             d="m 191.19,144.8 v 0 c -1.2,0.09 -7.4,0.46 -21.23,0.46 -11,0 -18.81,-0.33 -21.55,-0.46 v 0 c -42.51,-1.87 -74.24,-9.27 -74.24,-18.13 0,-8.86 31.73,-16.25 74.24,-18.15 v 28.91 c 2.78,0.2 10.74,0.67 21.74,0.67 13.2,0 19.81,-0.55 21,-0.66 v -28.9 c 42.42,1.89 74.08,9.29 74.08,18.13 0,8.84 -31.65,16.24 -74.08,18.12 v 0 z m 0,-39.25 V 79.68 h 59.2 V 40.23 H 89.21 v 39.45 h 59.19 v 25.86 c -48.11,2.21 -84.29,11.74 -84.29,23.16 0,11.42 36.18,20.94 84.29,23.16 v 82.9 h 42.78 v -82.93 c 48,-2.21 84.12,-11.73 84.12,-23.14 0,-11.41 -36.09,-20.93 -84.12,-23.15 v 0 z m 0,0 z"
             style="fill:#ffffff;fill-rule:evenodd"
             id="path895" /></g><g
           id="g1106"
           transform="matrix(0.008,0,0,0.008,99.70013,32.17314)"><path
             d="m 1000,2000 c 554.17,0 1000,-445.83 1000,-1000 C 2000,445.83 1554.17,0 1000,0 445.83,0 0,445.83 0,1000 0,1554.17 445.83,2000 1000,2000 Z"
             fill="#2775ca"
             id="path1091" /><path
             d="m 1275,1158.33 c 0,-145.83 -87.5,-195.83 -262.5,-216.66 -125,-16.67 -150,-50 -150,-108.34 0,-58.34 41.67,-95.83 125,-95.83 75,0 116.67,25 137.5,87.5 4.17,12.5 16.67,20.83 29.17,20.83 h 66.66 c 16.67,0 29.17,-12.5 29.17,-29.16 V 812.5 C 1233.33,720.83 1158.33,650 1062.5,641.67 v -100 c 0,-16.67 -12.5,-29.17 -33.33,-33.34 h -62.5 c -16.67,0 -29.17,12.5 -33.34,33.34 v 95.83 c -125,16.67 -204.16,100 -204.16,204.17 0,137.5 83.33,191.66 258.33,212.5 116.67,20.83 154.17,45.83 154.17,112.5 0,66.67 -58.34,112.5 -137.5,112.5 -108.34,0 -145.84,-45.84 -158.34,-108.34 -4.16,-16.66 -16.66,-25 -29.16,-25 h -70.84 c -16.66,0 -29.16,12.5 -29.16,29.17 v 4.17 c 16.66,104.16 83.33,179.16 220.83,200 v 100 c 0,16.66 12.5,29.16 33.33,33.33 h 62.5 c 16.67,0 29.17,-12.5 33.34,-33.33 v -100 c 125,-20.84 208.33,-108.34 208.33,-220.84 z"
             fill="#ffffff"
             id="path1093" /><path
             d="m 787.5,1595.83 c -325,-116.66 -491.67,-479.16 -370.83,-800 62.5,-175 200,-308.33 370.83,-370.83 16.67,-8.33 25,-20.83 25,-41.67 V 325 c 0,-16.67 -8.33,-29.17 -25,-33.33 -4.17,0 -12.5,0 -16.67,4.16 -395.83,125 -612.5,545.84 -487.5,941.67 75,233.33 254.17,412.5 487.5,487.5 16.67,8.33 33.34,0 37.5,-16.67 4.17,-4.16 4.17,-8.33 4.17,-16.66 v -58.34 c 0,-12.5 -12.5,-29.16 -25,-37.5 z m 441.67,-1300 c -16.67,-8.33 -33.34,0 -37.5,16.67 -4.17,4.17 -4.17,8.33 -4.17,16.67 v 58.33 c 0,16.67 12.5,33.33 25,41.67 325,116.66 491.67,479.16 370.83,800 -62.5,175 -200,308.33 -370.83,370.83 -16.67,8.33 -25,20.83 -25,41.67 V 1700 c 0,16.67 8.33,29.17 25,33.33 4.17,0 12.5,0 16.67,-4.16 395.83,-125 612.5,-545.84 487.5,-941.67 -75,-237.5 -258.34,-416.67 -487.5,-491.67 z"
             fill="#ffffff"
             id="path1095" /></g><g
           style="clip-rule:evenodd;fill-rule:evenodd;image-rendering:optimizeQuality;shape-rendering:geometricPrecision;text-rendering:geometricPrecision"
           id="g1311"
           transform="matrix(0.0039103,0,0,0.0039103,123.426,32.1732)"><g
             id="Layer_x0020_1">
  <metadata
   id="CorelCorpID_0Corel-Layer" />
  <g
   id="_1421344023328">
   <path
   fill="#f7931a"
   fill-rule="nonzero"
   d="M 4030.06,2540.77 C 3756.82,3636.78 2646.74,4303.79 1550.6,4030.48 454.92,3757.24 -212.09,2647.09 61.27,1551.17 334.39,455.04 1444.47,-212.02 2540.27,61.22 3636.33,334.46 4303.3,1444.73 4030.03,2540.79 l 0.02,-0.02 z"
   id="path1294" />
   <path
   fill="#ffffff"
   fill-rule="nonzero"
   d="m 2947.77,1754.38 c 40.72,-272.26 -166.56,-418.61 -450,-516.24 l 91.95,-368.8 -224.5,-55.94 -89.51,359.09 c -59.02,-14.72 -119.63,-28.59 -179.87,-42.34 l 90.16,-361.46 -224.36,-55.94 -92,368.68 c -48.84,-11.12 -96.81,-22.11 -143.35,-33.69 l 0.26,-1.16 -309.59,-77.31 -59.72,239.78 c 0,0 166.56,38.18 163.05,40.53 90.91,22.69 107.35,82.87 104.62,130.57 l -104.74,420.15 c 6.26,1.59 14.38,3.89 23.34,7.49 -7.49,-1.86 -15.46,-3.89 -23.73,-5.87 l -146.81,588.57 c -11.11,27.62 -39.31,69.07 -102.87,53.33 2.25,3.26 -163.17,-40.72 -163.17,-40.72 l -111.46,256.98 292.15,72.83 c 54.35,13.63 107.61,27.89 160.06,41.3 l -92.9,373.03 224.24,55.94 92,-369.07 c 61.26,16.63 120.71,31.97 178.91,46.43 l -91.69,367.33 224.51,55.94 92.89,-372.33 c 382.82,72.45 670.67,43.24 791.83,-303.02 97.63,-278.78 -4.86,-439.58 -206.26,-544.44 146.69,-33.83 257.18,-130.31 286.64,-329.61 l -0.07,-0.05 z m -512.93,719.26 c -69.38,278.78 -538.76,128.08 -690.94,90.29 l 123.28,-494.2 c 152.17,37.99 640.17,113.17 567.67,403.91 z m 69.43,-723.3 c -63.29,253.58 -453.96,124.75 -580.69,93.16 l 111.77,-448.21 c 126.73,31.59 534.85,90.55 468.94,355.05 z"
   id="path1296" />
  </g>
 </g></g><g
           style="clip-rule:evenodd;fill-rule:evenodd;image-rendering:optimizeQuality;shape-rendering:geometricPrecision;text-rendering:geometricPrecision"
           id="g1369"
           transform="matrix(0.0125256,0,0,0.0125256,147.15,32.17317)"><g
             id="Layer_x0020_1-2">
  <metadata
   id="CorelCorpID_0Corel-Layer-4" />
  <g
   id="_1421394342400">
   <g
   id="g1349">
    <polygon
   fill="#343434"
   fill-rule="nonzero"
   points="383.5,29.11 383.5,873.74 392.07,882.29 784.13,650.54 392.07,0 "
   id="polygon1337" />
    <polygon
   fill="#8c8c8c"
   fill-rule="nonzero"
   points="392.07,0 0,650.54 392.07,882.29 392.07,472.33 "
   id="polygon1339" />
    <polygon
   fill="#3c3c3b"
   fill-rule="nonzero"
   points="387.24,962.41 387.24,1263.28 392.07,1277.38 784.37,724.89 392.07,956.52 "
   id="polygon1341" />
    <polygon
   fill="#8c8c8c"
   fill-rule="nonzero"
   points="392.07,1277.38 392.07,956.52 0,724.89 "
   id="polygon1343" />
    <polygon
   fill="#141414"
   fill-rule="nonzero"
   points="392.07,882.29 784.13,650.54 392.07,472.33 "
   id="polygon1345" />
    <polygon
   fill="#393939"
   fill-rule="nonzero"
   points="0,650.54 392.07,882.29 392.07,472.33 "
   id="polygon1347" />
   </g>
  </g>
 </g></g></g></g></g></svg>
