<?xml version="1.0" encoding="UTF-8" standalone="no"?>
<svg
   xmlns:dc="http://purl.org/dc/elements/1.1/"
   xmlns:cc="http://creativecommons.org/ns#"
   xmlns:rdf="http://www.w3.org/1999/02/22-rdf-syntax-ns#"
   xmlns:svg="http://www.w3.org/2000/svg"
   xmlns="http://www.w3.org/2000/svg"
   width="21"
   height="21"
   viewBox="0 0 5.55625 5.55625"
   version="1.1"
   id="svg4552">
  <defs
     id="defs4546">
    <style
       id="style2">.a17c5ea4-2d8f-475c-9b9d-94e75c8cda6e{fill:#fefefe;}.abfacd92-94fa-4aa0-b8d4-cfe194242e21{fill:#fe9631;}.b89f2136-a186-444e-8cce-77f19f193bec{fill:#013685;}</style>
  </defs>
  <metadata
     id="metadata4549">
    <rdf:RDF>
      <cc:Work
         rdf:about="">
        <dc:format>image/svg+xml</dc:format>
        <dc:type
           rdf:resource="http://purl.org/dc/dcmitype/StillImage" />
        <dc:title></dc:title>
      </cc:Work>
    </rdf:RDF>
  </metadata>
  <g
     id="layer1"
     transform="translate(-9.83874e-6,-292.634)">
    <g
       id="g5169">
      <path
         class="abfacd92-94fa-4aa0-b8d4-cfe194242e21"
         d="m 3.072903,295.2444 c 0.0019,-0.089 -0.0083,-0.1736 -0.0025,-0.2589 a 1.209498,1.209498 0 0 1 0.229721,-0.6389 c 0.21248,-0.2942 0.500421,-0.4643 0.860059,-0.511 0.268211,-0.035 0.521366,0.016 0.756916,0.1477 a 1.280406,1.280406 0 0 1 0.230693,0.1685 1.254241,1.254241 0 0 1 0.282052,0.3725 1.156196,1.156196 0 0 1 0.107879,0.3354 c 0.06174,0.3798 -0.03035,0.7204 -0.277378,1.0145 -0.202463,0.2408 -0.46351,0.3824 -0.775977,0.4274 -0.14127,0.02 -0.282053,0.013 -0.422654,-0.01 -0.344764,-0.046 -0.67162,-0.1531 -0.987001,-0.297 -0.143637,-0.066 -0.283388,-0.1386 -0.406748,-0.2381 -0.0425,-0.034 -0.08451,-0.07 -0.10454,-0.123 -0.01402,-0.037 -0.0032,-0.06 0.03485,-0.072 0.03035,-0.01 0.06144,-0.01 0.09301,-0.01 0.07352,0 0.146732,0.016 0.220736,0 0.102659,-0.016 0.133559,-0.072 0.148979,-0.1464 0.0027,-0.013 0.0045,-0.026 0.0061,-0.039 a 0.8572668,0.8572668 0 0 0 0.0059,-0.1319 z"
         id="path10"
         style="fill:#fe9631;stroke-width:0.0060709" />
      <path
         class="b89f2136-a186-444e-8cce-77f19f193bec"
         d="m 1.198998,294.784 c 0.08238,0 0.163913,0.01 0.24587,0.017 a 2.588677,2.588677 0 0 1 0.309614,0.044 c 0.228446,0.047 0.452279,0.1083 0.662028,0.2131 0.04796,0.024 0.09434,0.051 0.132891,0.089 a 0.1746588,0.1746588 0 0 1 0.02689,0.033 c 0.02143,0.036 0.01172,0.062 -0.0278,0.075 -0.03734,0.012 -0.07661,0.016 -0.115347,0.017 a 0.6834579,0.6834579 0 0 0 -0.120385,0.012 c -0.106969,0.022 -0.145701,0.068 -0.146126,0.1783 -4.25e-4,0.084 0.01718,0.1665 0.02957,0.2494 0.01475,0.099 0.02064,0.1982 0.0081,0.2997 -0.01214,0.097 -0.03035,0.1913 -0.06727,0.281 -0.158571,0.3833 -0.442201,0.6195 -0.850649,0.6895 -0.3528995,0.061 -0.6659133,-0.039 -0.9317565,-0.2804 a 1.05287,1.05287 0 0 1 -0.2945583,-0.4534 c -0.0526344,-0.1574 -0.0728504,-0.3197 -0.0520273,-0.4838 0.0630156,-0.491 0.4176147,-0.8546 0.8655231,-0.9517 0.107515,-0.023 0.216184,-0.029 0.325398,-0.029 z"
         id="path12"
         style="fill:#1badf3;fill-opacity:1;stroke-width:0.0060709" />
    </g>
  </g>
</svg>
