<?xml version="1.0" encoding="UTF-8" standalone="no"?>
<svg
   xmlns:dc="http://purl.org/dc/elements/1.1/"
   xmlns:cc="http://creativecommons.org/ns#"
   xmlns:rdf="http://www.w3.org/1999/02/22-rdf-syntax-ns#"
   xmlns:svg="http://www.w3.org/2000/svg"
   xmlns="http://www.w3.org/2000/svg"
   height="69.014725"
   width="80"
   id="e7611fa2-5f10-4219-a8a3-b243e9362271"
   data-name="Layer 1"
   viewBox="0 0 80 69.014725"
   version="1.1">
  <metadata
     id="metadata33">
    <rdf:RDF>
      <cc:Work
         rdf:about="">
        <dc:format>image/svg+xml</dc:format>
        <dc:type
           rdf:resource="http://purl.org/dc/dcmitype/StillImage" />
        <dc:title>yappy-image-trace</dc:title>
      </cc:Work>
    </rdf:RDF>
  </metadata>
  <defs
     id="defs4">
    <style
       id="style2">.a17c5ea4-2d8f-475c-9b9d-94e75c8cda6e{fill:#fefefe;}.abfacd92-94fa-4aa0-b8d4-cfe194242e21{fill:#fe9631;}.b89f2136-a186-444e-8cce-77f19f193bec{fill:#013685;}</style>
  </defs>
  <title
     id="title6">yappy-image-trace</title>
  <g
     transform="matrix(1.4653761,0,0,1.4653761,-1.0360662,-0.54742714)"
     id="g908">
    <path
       id="path10"
       d="m 30.200024,12.348402 c 0.01639,-0.752376 -0.06965,-1.464804 -0.02151,-2.184402 a 10.203951,10.203951 0 0 1 1.938049,-5.3900709 c 1.792592,-2.4814607 4.221812,-3.91707157 7.255903,-4.31041767 2.262765,-0.29398524 4.398511,0.13572489 6.385729,1.24559597 a 10.802165,10.802165 0 0 1 1.946243,1.4212701 10.58142,10.58142 0 0 1 2.379539,3.1426714 9.7542662,9.7542662 0 0 1 0.910125,2.8302481 c 0.520877,3.204132 -0.256084,6.077402 -2.340102,8.558351 -1.708085,2.031776 -3.910413,3.226667 -6.546549,3.606184 -1.191818,0.171577 -2.379539,0.10602 -3.565723,-0.05122 -2.90861,-0.392322 -5.66613,-1.291692 -8.32685,-2.506045 -1.211793,-0.553143 -2.390807,-1.168771 -3.431535,-2.008729 -0.358519,-0.287839 -0.71294,-0.58797 -0.881956,-1.037655 -0.118311,-0.314472 -0.02663,-0.50756 0.293985,-0.610506 0.256085,-0.08143 0.518316,-0.07631 0.784644,-0.06351 0.620237,0.03022 1.237913,0.133164 1.862248,0.03329 0.866078,-0.138798 1.126772,-0.608457 1.256863,-1.235352 0.02254,-0.108068 0.0379,-0.217672 0.05122,-0.327277 a 7.2323441,7.2323441 0 0 0 0.04968,-1.112432 z"
       class="abfacd92-94fa-4aa0-b8d4-cfe194242e21"
       style="fill:#fe9631;stroke-width:0.05121694" />
    <path
       style="fill:#1badf3;fill-opacity:1;stroke-width:0.05121694"
       id="path12"
       d="m 15.377841,8.4641096 c 0.695014,0 1.382858,0.088093 2.074286,0.1439196 a 21.839415,21.839415 0 0 1 2.612064,0.3754202 c 1.927294,0.3928339 3.815662,0.9137102 5.585208,1.7982266 0.404613,0.201795 0.795911,0.428686 1.121138,0.750328 a 1.4735114,1.4735114 0 0 1 0.226891,0.275035 c 0.180796,0.301156 0.09885,0.523437 -0.234573,0.635603 -0.314984,0.105506 -0.646358,0.1347 -0.973122,0.144431 a 5.7660031,5.7660031 0 0 0 -1.015632,0.102434 c -0.902442,0.188479 -1.229207,0.574142 -1.232792,1.504242 -0.0036,0.710379 0.144944,1.404368 0.249427,2.103992 0.124457,0.837397 0.174137,1.671721 0.06863,2.52858 -0.102433,0.819471 -0.256084,1.613846 -0.567483,2.37032 -1.337787,3.233325 -3.730642,5.226176 -7.176518,5.816708 -2.977241,0.512169 -5.617986,-0.332398 -7.8607758,-2.365711 A 8.8825539,8.8825539 0 0 1 5.7695433,20.823269 C 5.3254924,19.494702 5.15494,18.125673 5.3306141,16.741279 5.8622459,12.598853 8.8538274,9.5314707 12.632613,8.7119996 c 0.907052,-0.1956487 1.823835,-0.2402074 2.745228,-0.24789 z"
       class="b89f2136-a186-444e-8cce-77f19f193bec" />
    <path
       id="path14"
       d="m 37.677697,42.03835 v 0.503463 q 0,1.715767 0,3.431535 c 0,0.311399 -0.03585,0.614603 -0.200258,0.886053 -0.299107,0.494755 -0.921905,0.710379 -1.627675,0.567995 -0.563386,-0.113701 -0.908076,-0.483487 -1.000779,-1.081189 a 2.708864,2.708864 0 0 1 -0.03022,-0.407175 q 0,-6.131692 0,-12.262871 v -0.05122 c 0.0051,-1.132407 0.851738,-1.703988 1.913977,-1.288619 0.383615,0.150066 0.577215,0.45788 0.677088,0.840983 0.01639,0.06197 -0.0082,0.136237 0.06761,0.204867 a 3.5093847,3.5093847 0 0 1 1.728059,-0.973122 c 1.559044,-0.38259 3.000289,-0.179771 4.230519,0.921905 0.741622,0.665821 1.161601,1.527802 1.368517,2.489656 0.341105,1.587725 0.297571,3.152915 -0.344178,4.665863 -0.765181,1.803348 -2.378514,2.75291 -4.336538,2.570066 A 7.8069982,7.8069982 0 0 1 39.313566,42.950524 C 38.691792,42.826579 38.138649,42.562299 37.677697,42.03835 Z m -0.112165,-4.546527 c -0.0036,0.839445 0.104995,1.566214 0.47222,2.233058 0.403077,0.731378 1.024339,1.083238 1.86276,1.066337 0.838421,-0.0169 1.474536,-0.377469 1.817689,-1.137016 0.585922,-1.297325 0.614604,-2.632039 0.03995,-3.936022 -0.368762,-0.836885 -1.061215,-1.270692 -1.997461,-1.242011 -0.936246,0.02868 -1.536508,0.518828 -1.890417,1.356737 a 4.1736684,4.1736684 0 0 0 -0.304741,1.658917 z"
       class="b89f2136-a186-444e-8cce-77f19f193bec"
       style="fill:#013685;stroke-width:0.05121694" />
    <path
       id="path16"
       d="m 25.842999,42.04296 c 0,0.902442 0,1.744961 0,2.587992 0,0.494755 0.01127,0.990535 -0.0061,1.485291 -0.03124,0.88298 -0.601287,1.394125 -1.485292,1.351615 -0.884004,-0.04251 -1.36698,-0.535729 -1.367492,-1.418709 q -0.0072,-6.248467 0,-12.496933 c 0,-1.08119 0.962366,-1.660966 1.946244,-1.193867 0.343153,0.162357 0.529583,0.442514 0.60436,0.806154 0.01178,0.05736 0.021,0.115751 0.03329,0.173114 0,0.0061 0.01332,0.0097 0.04149,0.02766 a 3.5549678,3.5549678 0 0 1 1.529338,-0.907052 c 2.009241,-0.614604 4.251006,-0.0338 5.347049,2.092212 0.595141,1.153405 0.735987,2.402074 0.65865,3.680449 -0.05992,0.981317 -0.284767,1.922684 -0.786693,2.776982 -0.914222,1.556995 -2.318078,2.15777 -4.073795,2.045093 A 5.4884073,5.4884073 0 0 1 27.423553,42.936695 C 26.829437,42.805068 26.302415,42.550519 25.842999,42.04296 Z m 4.428728,-4.371878 c 0.0046,-0.717037 -0.08809,-1.413588 -0.435344,-2.052775 -0.409735,-0.753913 -1.04124,-1.155966 -1.907831,-1.144187 -0.856347,0.01229 -1.47095,0.421004 -1.853541,1.1826 a 3.6256472,3.6256472 0 0 0 -0.358518,1.322933 c -0.08246,0.921905 -0.02458,1.826908 0.401541,2.668403 0.36364,0.717037 0.942391,1.120626 1.769033,1.142649 0.850201,0.02254 1.507314,-0.298594 1.930878,-1.048922 0.363128,-0.642261 0.452758,-1.34803 0.453782,-2.070701 z"
       class="b89f2136-a186-444e-8cce-77f19f193bec"
       style="fill:#013685;stroke-width:0.05121694" />
    <path
       id="path18"
       d="m 20.718744,37.769931 q 0,1.241498 0,2.482997 a 3.4638017,3.4638017 0 0 0 0.238671,1.249181 c 0.36364,0.938294 -0.358519,1.610772 -1.161601,1.604626 -0.742645,-0.0051 -1.20411,-0.289375 -1.465316,-0.962366 -0.08604,-0.220745 -0.159285,-0.06658 -0.229964,-0.02049 -1.769033,1.144187 -3.654329,1.326519 -5.58572,0.539315 -2.349321,-0.957245 -2.066603,-3.782371 -0.563386,-4.826172 0.815886,-0.566972 1.728059,-0.829715 2.692474,-0.954684 0.735476,-0.09475 1.474536,-0.159797 2.209499,-0.256085 0.586434,-0.07887 0.896297,-0.367737 0.951611,-0.836885 0.06658,-0.56902 -0.156724,-0.978755 -0.70116,-1.196427 -0.833812,-0.332398 -2.233058,-0.371835 -3.226667,0.692453 a 3.7608599,3.7608599 0 0 1 -0.490658,0.447636 1.221524,1.221524 0 0 1 -1.494511,-0.02254 c -0.432783,-0.336495 -0.559801,-0.854298 -0.319593,-1.402319 0.330861,-0.755962 0.956732,-1.203086 1.679915,-1.528826 1.075556,-0.484 2.213596,-0.594629 3.376221,-0.529583 0.846104,0.04712 1.67633,0.17004 2.458413,0.527022 1.067361,0.488097 1.629723,1.302959 1.630235,2.487607 q 0,1.253791 0,2.50963 z m -2.905537,0.202306 c -0.537266,0.352373 -1.108847,0.406663 -1.669673,0.49578 -0.605384,0.09629 -1.220499,0.146993 -1.780813,0.427662 -0.479902,0.240719 -0.700135,0.631505 -0.660186,1.164673 0.03636,0.488609 0.317033,0.80513 0.758011,0.964927 0.838421,0.303204 1.6456,0.200258 2.34676,-0.34469 0.864542,-0.672478 1.02229,-1.640478 1.005901,-2.708352 z"
       class="b89f2136-a186-444e-8cce-77f19f193bec"
       style="fill:#013685;stroke-width:0.05121694" />
    <path
       id="path20"
       d="m 5.4294628,40.101326 c 0.447636,-1.629211 0.8783705,-3.19645 1.3085928,-4.763176 0.187454,-0.681185 0.3672255,-1.364419 0.5633863,-2.043044 0.1536509,-0.531631 0.4962922,-0.891686 1.0443135,-1.016144 0.5480212,-0.124457 1.0540446,-0.02561 1.4504637,0.409736 0.3533969,0.3872 0.4210029,0.852762 0.2924489,1.338811 -0.2560849,0.963903 -0.6202373,1.891441 -0.9449527,2.832297 Q 7.7951732,40.768682 6.4292175,44.670901 C 6.2146185,45.285504 5.9206332,45.862719 5.4868258,46.355938 5.0048744,46.903959 4.3800277,47.1708 3.6635027,47.22048 3.2025502,47.252235 2.7415978,47.259405 2.2924252,47.124192 1.5584865,46.902423 1.1835785,46.293966 1.3541309,45.600488 1.4734663,45.117 1.8581056,44.817381 2.4255893,44.774359 c 0.1444317,-0.01127 0.2904,-0.01024 0.435344,-0.0072 0.4189545,0.01024 0.7216466,-0.176699 0.907052,-0.546485 0.095264,-0.189503 0.1659428,-0.390785 0.2494265,-0.586434 0.044559,-0.105507 0,-0.196161 -0.034315,-0.293473 Q 2.4783427,39.038574 0.97768637,34.736351 A 6.893288,6.893288 0 0 1 0.74413712,33.953756 C 0.57256037,33.175259 1.0114895,32.446442 1.7408188,32.274865 c 0.8266414,-0.195137 1.5877251,0.22894 1.8053971,1.012047 0.3513482,1.271716 0.6965504,2.545482 1.0448256,3.81771 q 0.3815662,1.391565 0.7651811,2.782105 c 0.014341,0.04814 0.032779,0.09424 0.07324,0.214599 z"
       class="b89f2136-a186-444e-8cce-77f19f193bec"
       style="fill:#013685;stroke-width:0.05121694" />
    <path
       id="path22"
       d="m 50.597682,39.995819 q 0.225355,-0.819471 0.450709,-1.638942 c 0.460953,-1.681965 0.916783,-3.365978 1.385931,-5.045893 0.298082,-1.068386 1.558531,-1.485292 2.381075,-0.789253 0.414345,0.349811 0.55724,0.813837 0.451734,1.335737 -0.147505,0.727793 -0.43893,1.413076 -0.681698,2.111675 q -1.48273,4.265347 -2.977241,8.52762 c -0.232012,0.660187 -0.523437,1.29374 -0.989511,1.831518 a 2.3995136,2.3995136 0 0 1 -1.306032,0.800009 c -0.675551,0.15365 -1.3552,0.18182 -2.015386,-0.06351 -0.442003,-0.163895 -0.750329,-0.469148 -0.812813,-0.962367 -0.09578,-0.752889 0.339568,-1.277862 1.098091,-1.33164 a 3.1964492,3.1964492 0 0 1 0.383615,-0.0056 c 0.460952,0.02458 0.777985,-0.187454 0.982853,-0.593604 0.184381,-0.365689 0.251475,-0.702697 0.09885,-1.129846 -1.036631,-2.899391 -2.039459,-5.810562 -3.052018,-8.718147 -0.124969,-0.358519 -0.196673,-0.726769 -0.09936,-1.104238 0.153651,-0.601286 0.70116,-1.016144 1.339323,-1.024338 0.708843,-0.01076 1.280424,0.386175 1.452,1.020753 q 0.896809,3.261495 1.789008,6.524014 c 0.02254,0.08195 0.04661,0.163382 0.06965,0.244817 z"
       class="b89f2136-a186-444e-8cce-77f19f193bec"
       style="fill:#013685;stroke-width:0.05121694" />
    <path
       id="path24"
       d="m 37.565532,37.491823 a 4.1736684,4.1736684 0 0 1 0.307301,-1.658917 c 0.352373,-0.837909 0.963391,-1.328568 1.890418,-1.356737 0.927026,-0.02817 1.62665,0.405126 1.99746,1.242011 0.575167,1.303983 0.545973,2.638697 -0.03995,3.936022 -0.343153,0.759547 -0.978756,1.120114 -1.817689,1.137016 -0.838934,0.0169 -1.462244,-0.334959 -1.866858,-1.066337 -0.365688,-0.666844 -0.474268,-1.393613 -0.470683,-2.233058 z"
       class="a17c5ea4-2d8f-475c-9b9d-94e75c8cda6e"
       style="fill:#fefefe;stroke-width:0.05121694" />
    <path
       id="path26"
       d="m 30.271727,37.671082 c 0,0.722671 -0.09065,1.42844 -0.453782,2.070701 -0.423564,0.750328 -1.080677,1.071458 -1.930878,1.048922 -0.826642,-0.02202 -1.405393,-0.426636 -1.769033,-1.143674 -0.426125,-0.841494 -0.484001,-1.748034 -0.401541,-2.668402 a 3.6256472,3.6256472 0 0 1 0.358518,-1.322934 c 0.382591,-0.761596 0.997194,-1.170307 1.853541,-1.182599 0.866591,-0.01178 1.498096,0.390273 1.907831,1.144187 0.347251,0.640211 0.439954,1.337274 0.435344,2.053799 z"
       class="a17c5ea4-2d8f-475c-9b9d-94e75c8cda6e"
       style="fill:#fefefe;stroke-width:0.05121694" />
    <path
       id="path28"
       d="m 17.813207,37.972237 c 0.01639,1.067874 -0.141359,2.035874 -1.005901,2.708352 -0.70116,0.544948 -1.508339,0.647894 -2.34676,0.34469 -0.440978,-0.159797 -0.721647,-0.476318 -0.758011,-0.964927 -0.03995,-0.533168 0.180284,-0.921905 0.660186,-1.164673 0.560314,-0.280669 1.17799,-0.331374 1.780813,-0.427662 0.560826,-0.08912 1.132407,-0.143407 1.669673,-0.49578 z"
       class="a17c5ea4-2d8f-475c-9b9d-94e75c8cda6e"
       style="fill:#fefefe;stroke-width:0.05121694" />
  </g>
</svg>
