<?xml version="1.0" encoding="UTF-8" standalone="no"?>
<svg
   xmlns:dc="http://purl.org/dc/elements/1.1/"
   xmlns:cc="http://creativecommons.org/ns#"
   xmlns:rdf="http://www.w3.org/1999/02/22-rdf-syntax-ns#"
   xmlns:svg="http://www.w3.org/2000/svg"
   xmlns="http://www.w3.org/2000/svg"
   id="svg4552"
   version="1.1"
   viewBox="0 0 5.5562499 3.1750001"
   height="12"
   width="21">
  <defs
     id="defs4546">
    <style
       id="style2">.a17c5ea4-2d8f-475c-9b9d-94e75c8cda6e{fill:#fefefe;}.abfacd92-94fa-4aa0-b8d4-cfe194242e21{fill:#fe9631;}.b89f2136-a186-444e-8cce-77f19f193bec{fill:#013685;}</style>
  </defs>
  <metadata
     id="metadata4549">
    <rdf:RDF>
      <cc:Work
         rdf:about="">
        <dc:format>image/svg+xml</dc:format>
        <dc:type
           rdf:resource="http://purl.org/dc/dcmitype/StillImage" />
        <dc:title></dc:title>
      </cc:Work>
    </rdf:RDF>
  </metadata>
  <g
     transform="translate(0,-293.82498)"
     id="layer1">
    <g
       id="g5169">
      <path
         style="fill:#fe9631;stroke-width:0.00607086"
         id="path10"
         d="m 3.0729035,295.24439 c 0.00194,-0.0892 -0.00826,-0.17363 -0.00255,-0.25892 a 1.2094983,1.2094983 0 0 1 0.2297215,-0.6389 c 0.2124803,-0.29413 0.5004214,-0.4643 0.8600594,-0.51093 0.2682108,-0.0348 0.5213658,0.0161 0.7569155,0.14765 a 1.280406,1.280406 0 0 1 0.2306927,0.16846 1.2542406,1.2542406 0 0 1 0.2820523,0.37251 1.1561961,1.1561961 0 0 1 0.1078794,0.33548 c 0.061741,0.37979 -0.030354,0.72037 -0.2773778,1.01444 -0.2024635,0.24083 -0.4635106,0.38246 -0.7759779,0.42745 -0.1412691,0.0203 -0.2820524,0.0126 -0.4226536,-0.006 -0.3447644,-0.0465 -0.6716198,-0.15311 -0.9870012,-0.29705 -0.1436366,-0.0656 -0.2833879,-0.13854 -0.4067479,-0.2381 -0.042496,-0.0341 -0.084506,-0.0697 -0.1045403,-0.12299 -0.014024,-0.0373 -0.00316,-0.0602 0.034847,-0.0724 0.030354,-0.01 0.061437,-0.009 0.093006,-0.008 0.073518,0.004 0.1467328,0.0158 0.2207367,0.004 0.1026583,-0.0164 0.133559,-0.0721 0.1489789,-0.14643 0.00267,-0.0128 0.00449,-0.0258 0.00607,-0.0388 a 0.85726678,0.85726678 0 0 0 0.00589,-0.13186 z"
         class="abfacd92-94fa-4aa0-b8d4-cfe194242e21" />
      <path
         style="fill:#1badf3;fill-opacity:1;stroke-width:0.00607086"
         id="path12"
         d="m 1.1989976,294.78397 c 0.082382,0 0.1639133,0.0104 0.24587,0.0171 a 2.5886774,2.5886774 0 0 1 0.3096141,0.0445 c 0.2284466,0.0466 0.4522794,0.10831 0.6620278,0.21315 0.04796,0.0239 0.094341,0.0508 0.1328912,0.0889 a 0.17465877,0.17465877 0 0 1 0.026894,0.0326 c 0.02143,0.0357 0.011717,0.062 -0.027805,0.0753 -0.037336,0.0125 -0.076614,0.016 -0.1153464,0.0171 a 0.68345792,0.68345792 0 0 0 -0.1203852,0.0121 c -0.1069687,0.0223 -0.1457008,0.0681 -0.1461257,0.1783 -4.25e-4,0.0842 0.017181,0.16647 0.029565,0.24939 0.014752,0.0993 0.020641,0.19816 0.00813,0.29972 -0.012142,0.0971 -0.030354,0.19129 -0.067265,0.28096 -0.158571,0.38326 -0.4422018,0.61947 -0.8506496,0.68947 -0.35289934,0.0607 -0.66591312,-0.0394 -0.93175628,-0.28041 a 1.05287,1.05287 0 0 1 -0.29455834,-0.45332 c -0.05263439,-0.15747 -0.07285038,-0.31975 -0.05202731,-0.48384 0.06301558,-0.49101 0.41761477,-0.8546 0.86552315,-0.95173 0.10751497,-0.0232 0.21618348,-0.0285 0.32539838,-0.0294 z"
         class="b89f2136-a186-444e-8cce-77f19f193bec" />
    </g>
  </g>
</svg>
