<?xml version="1.0" encoding="UTF-8" standalone="no"?>
<svg
   xmlns:dc="http://purl.org/dc/elements/1.1/"
   xmlns:cc="http://creativecommons.org/ns#"
   xmlns:rdf="http://www.w3.org/1999/02/22-rdf-syntax-ns#"
   xmlns:svg="http://www.w3.org/2000/svg"
   xmlns="http://www.w3.org/2000/svg"
   id="svg2"
   version="1.1"
   viewBox="0 0 17 17"
   height="17"
   width="17">
  <metadata
     id="metadata26">
    <rdf:RDF>
      <cc:Work
         rdf:about="">
        <dc:format>image/svg+xml</dc:format>
        <dc:type
           rdf:resource="http://purl.org/dc/dcmitype/StillImage" />
        <dc:title>Group</dc:title>
      </cc:Work>
    </rdf:RDF>
  </metadata>
  <!-- Generator: Sketch 3.6.1 (26313) - http://www.bohemiancoding.com/sketch -->
  <title
     id="title4">Group</title>
  <desc
     id="desc6">Created with Sketch.</desc>
  <defs
     id="defs8" />
  <g
     transform="matrix(0.48201659,0,0,0.50236034,-0.03358975,-0.05137794)"
     id="Logo"
     style="fill:none;fill-rule:evenodd;stroke:none;stroke-width:1">
    <path
       d="M 3.7758123,7.9800692 18.969513,0.34813286 c 0.916827,-0.46043389 2.05393,-0.25970481 2.727234,0.48106217 L 34.755437,15.202085 c 0.790671,0.870355 0.775079,2.150366 -0.03657,3.003795 L 20.603869,33.043699 c -1.368153,1.304607 -3.659087,1.170788 -4.8424,-0.282713 L 2.0810714,14.709915 C 0.36620229,12.446886 1.1599919,9.2939323 3.7758123,7.9800692"
       id="Guayaba"
       style="fill:#ff2f73" />
    <path
       d="M 0.96347229,15.018704 10.850973,1.8253296 c 0.596476,-0.7960402 1.708632,-1.09435694 2.667133,-0.7151139 l 18.594805,7.353719 c 1.126048,0.4453594 1.729611,1.5952543 1.416348,2.6978093 L 28.08131,30.337586 c -0.592507,1.739387 -2.703137,2.581445 -4.460814,1.780115 L 2.6962017,21.740087 C 0.07301042,20.438918 -0.73863947,17.290196 0.96347229,15.018704"
       id="Quirúrgico"
       style="mix-blend-mode:multiply;fill:#2fcad7" />
    <path
       d="M 7.7251345,5.9962881 15.719321,1.9807341 26.682014,6.3161685 32.946902,13.211542 30.169217,22.988515 22.169389,31.39801 10.247305,25.485132 2.0810714,14.709915 C 1.9246826,14.503536 1.7891576,14.289756 1.6739754,14.070645 L 7.7251345,5.9962881 Z"
       id="Medianoche"
       style="fill:#1a1446" />
  </g>
</svg>
